<?xml version="1.0" encoding="UTF-8" standalone="no"?>
<!DOCTYPE svg PUBLIC "-//W3C//DTD SVG 1.1//EN"
 "http://www.w3.org/Graphics/SVG/1.1/DTD/svg11.dtd">
<!-- Generated by graphviz version 2.40.1 (20161225.0304)
 -->
<!-- Title: dependencies Pages: 1 -->
<svg width="1009pt" height="284pt"
 viewBox="0.00 0.00 1009.00 284.00" xmlns="http://www.w3.org/2000/svg" xmlns:xlink="http://www.w3.org/1999/xlink">
<g id="graph0" class="graph" transform="scale(1 1) rotate(0) translate(4 280)">
<title>dependencies</title>
<polygon fill="#ffffff" stroke="transparent" points="-4,4 -4,-280 1005,-280 1005,4 -4,4"/>
<text text-anchor="start" x="479.5091" y="-42.4" font-family="sans-serif" font-weight="bold" font-size="14.00" fill="#000000">Legend</text>
<polygon fill="#ffffb3" stroke="transparent" points="266.5,-10 266.5,-30 286.5,-30 286.5,-10 266.5,-10"/>
<text text-anchor="start" x="290.129" y="-15.4" font-family="sans-serif" font-size="14.00" fill="#000000"> &#160;Declarations</text>
<polygon fill="#8dd3c7" stroke="transparent" points="379.5,-10 379.5,-30 399.5,-30 399.5,-10 379.5,-10"/>
<text text-anchor="start" x="403.2251" y="-15.4" font-family="sans-serif" font-size="14.00" fill="#000000"> &#160;Module</text>
<polygon fill="#80b1d3" stroke="transparent" points="465.5,-10 465.5,-30 485.5,-30 485.5,-10 465.5,-10"/>
<text text-anchor="start" x="489.2812" y="-15.4" font-family="sans-serif" font-size="14.00" fill="#000000"> &#160;Bootstrap</text>
<polygon fill="#fdb462" stroke="transparent" points="562.5,-10 562.5,-30 582.5,-30 582.5,-10 562.5,-10"/>
<text text-anchor="start" x="586.1732" y="-15.4" font-family="sans-serif" font-size="14.00" fill="#000000"> &#160;Providers</text>
<polygon fill="#fb8072" stroke="transparent" points="658.5,-10 658.5,-30 678.5,-30 678.5,-10 658.5,-10"/>
<text text-anchor="start" x="682.2258" y="-15.4" font-family="sans-serif" font-size="14.00" fill="#000000"> &#160;Exports</text>
<g id="clust1" class="cluster">
<title>cluster_ViewBuilderModule</title>
<polygon fill="none" stroke="#000000" stroke-dasharray="1,5" points="8,-70 8,-268 993,-268 993,-70 8,-70"/>
</g>
<g id="clust2" class="cluster">
<title>cluster_ViewBuilderModule_declarations</title>
<polygon fill="none" stroke="#000000" points="549,-78 549,-130 985,-130 985,-78 549,-78"/>
</g>
<g id="clust6" class="cluster">
<title>cluster_ViewBuilderModule_exports</title>
<polygon fill="none" stroke="#000000" points="392,-208 392,-260 552,-260 552,-208 392,-208"/>
</g>
<g id="clust8" class="cluster">
<title>cluster_ViewBuilderModule_providers</title>
<polygon fill="none" stroke="#000000" points="16,-78 16,-130 541,-130 541,-78 16,-78"/>
</g>
<!-- SampleTypeLabSystemSelectorComponent -->
<g id="node1" class="node">
<title>SampleTypeLabSystemSelectorComponent</title>
<polygon fill="#ffffb3" stroke="#000000" points="977.451,-122 716.549,-122 716.549,-86 977.451,-86 977.451,-122"/>
<text text-anchor="middle" x="847" y="-99.8" font-family="Times,serif" font-size="14.00" fill="#000000">SampleTypeLabSystemSelectorComponent</text>
</g>
<!-- ViewBuilderModule -->
<g id="node3" class="node">
<title>ViewBuilderModule</title>
<polygon fill="#8dd3c7" stroke="#000000" points="537.8613,-187 534.8613,-191 513.8613,-191 510.8613,-187 406.1387,-187 406.1387,-151 537.8613,-151 537.8613,-187"/>
<text text-anchor="middle" x="472" y="-164.8" font-family="Times,serif" font-size="14.00" fill="#000000">ViewBuilderModule</text>
</g>
<!-- SampleTypeLabSystemSelectorComponent&#45;&gt;ViewBuilderModule -->
<g id="edge1" class="edge">
<title>SampleTypeLabSystemSelectorComponent&#45;&gt;ViewBuilderModule</title>
<path fill="none" stroke="#000000" d="M847,-122.2843C847,-143.3211 847,-175 847,-175 847,-175 548.1793,-175 548.1793,-175"/>
<polygon fill="#000000" stroke="#000000" points="548.1793,-171.5001 538.1793,-175 548.1792,-178.5001 548.1793,-171.5001"/>
</g>
<!-- ViewMainComponent -->
<g id="node2" class="node">
<title>ViewMainComponent</title>
<polygon fill="#ffffb3" stroke="#000000" points="698.7007,-122 557.2993,-122 557.2993,-86 698.7007,-86 698.7007,-122"/>
<text text-anchor="middle" x="628" y="-99.8" font-family="Times,serif" font-size="14.00" fill="#000000">ViewMainComponent</text>
</g>
<!-- ViewMainComponent&#45;&gt;ViewBuilderModule -->
<g id="edge2" class="edge">
<title>ViewMainComponent&#45;&gt;ViewBuilderModule</title>
<path fill="none" stroke="#000000" d="M628,-122.0225C628,-139.3734 628,-163 628,-163 628,-163 548.158,-163 548.158,-163"/>
<polygon fill="#000000" stroke="#000000" points="548.1581,-159.5001 538.158,-163 548.158,-166.5001 548.1581,-159.5001"/>
</g>
<!-- ViewMainComponent  -->
<g id="node4" class="node">
<title>ViewMainComponent </title>
<polygon fill="#fb8072" stroke="#000000" points="544.2009,-252 399.7991,-252 399.7991,-216 544.2009,-216 544.2009,-252"/>
<text text-anchor="middle" x="472" y="-229.8" font-family="Times,serif" font-size="14.00" fill="#000000">ViewMainComponent </text>
</g>
<!-- ViewBuilderModule&#45;&gt;ViewMainComponent  -->
<g id="edge3" class="edge">
<title>ViewBuilderModule&#45;&gt;ViewMainComponent </title>
<path fill="none" stroke="#000000" stroke-dasharray="5,2" d="M472,-187.1061C472,-187.1061 472,-205.991 472,-205.991"/>
<polygon fill="#000000" stroke="#000000" points="468.5001,-205.9909 472,-215.991 475.5001,-205.991 468.5001,-205.9909"/>
</g>
<!-- ChartService -->
<g id="node5" class="node">
<title>ChartService</title>
<ellipse fill="#fdb462" stroke="#000000" cx="472" cy="-104" rx="61.3916" ry="18"/>
<text text-anchor="middle" x="472" y="-99.8" font-family="Times,serif" font-size="14.00" fill="#000000">ChartService</text>
</g>
<!-- ChartService&#45;&gt;ViewBuilderModule -->
<g id="edge4" class="edge">
<title>ChartService&#45;&gt;ViewBuilderModule</title>
<path fill="none" stroke="#000000" d="M472,-122.1061C472,-122.1061 472,-140.991 472,-140.991"/>
<polygon fill="#000000" stroke="#000000" points="468.5001,-140.9909 472,-150.991 475.5001,-140.991 468.5001,-140.9909"/>
</g>
<!-- CvService -->
<g id="node6" class="node">
<title>CvService</title>
<ellipse fill="#fdb462" stroke="#000000" cx="341" cy="-104" rx="51.0223" ry="18"/>
<text text-anchor="middle" x="341" y="-99.8" font-family="Times,serif" font-size="14.00" fill="#000000">CvService</text>
</g>
<!-- CvService&#45;&gt;ViewBuilderModule -->
<g id="edge5" class="edge">
<title>CvService&#45;&gt;ViewBuilderModule</title>
<path fill="none" stroke="#000000" d="M341,-122.0225C341,-139.3734 341,-163 341,-163 341,-163 396.1162,-163 396.1162,-163"/>
<polygon fill="#000000" stroke="#000000" points="396.1162,-166.5001 406.1162,-163 396.1162,-159.5001 396.1162,-166.5001"/>
</g>
<!-- SampleTypeCategoryService -->
<g id="node7" class="node">
<title>SampleTypeCategoryService</title>
<ellipse fill="#fdb462" stroke="#000000" cx="148" cy="-104" rx="124.3974" ry="18"/>
<text text-anchor="middle" x="148" y="-99.8" font-family="Times,serif" font-size="14.00" fill="#000000">SampleTypeCategoryService</text>
</g>
<!-- SampleTypeCategoryService&#45;&gt;ViewBuilderModule -->
<g id="edge6" class="edge">
<title>SampleTypeCategoryService&#45;&gt;ViewBuilderModule</title>
<path fill="none" stroke="#000000" d="M148,-122.2843C148,-143.3211 148,-175 148,-175 148,-175 396.0432,-175 396.0432,-175"/>
<polygon fill="#000000" stroke="#000000" points="396.0433,-178.5001 406.0432,-175 396.0432,-171.5001 396.0433,-178.5001"/>
</g>
</g>
</svg>
