<?xml version="1.0" encoding="UTF-8"?>
<svg width="566px" height="119px" viewBox="0 0 566 119" version="1.1" xmlns="http://www.w3.org/2000/svg" xmlns:xlink="http://www.w3.org/1999/xlink">
    <g id="Symbols" stroke="none" stroke-width="1" fill="none" fill-rule="evenodd">
        <g id="Logo/Colour" fill-rule="nonzero">
            <g id="Logo_colour">
                <path d="M69.64,25.1699316 C62.1884235,25.1497632 55.4595049,29.6234449 52.5948109,36.5023932 C49.7301169,43.3813415 51.2946663,51.308785 56.5580093,56.583595 C61.8213524,61.8584051 69.7453722,63.440203 76.6305386,60.5904863 C83.5157049,57.7407696 88.0040201,51.0216029 88.0000027,43.57 C87.9889772,33.4125299 79.7574701,25.1810228 69.6,25.1699316 M69.6,87.1700012 C51.9726259,87.1740448 36.0787077,76.5586836 29.3302008,60.2742742 C22.5816939,43.9898649 26.307745,25.24369 38.7707507,12.7778238 C51.2337565,0.311957545 69.9790758,-3.41839548 86.2650335,3.32637415 C102.550991,10.0711438 113.17,25.9626255 113.17,43.59 C113.147979,67.6266876 93.6766667,87.1114191 69.64,87.15" id="Shape" fill="#28336D"></path>
                <path d="M69.64,118.920201 C48.9752152,118.967836 29.2063334,110.487189 15,95.48 L33,78.3 C42.5951799,88.3640895 55.9226291,94.0158506 69.8274369,93.9173827 C83.7322447,93.8189147 96.9783145,87.9789713 106.43,77.78 L124.83,94.78 C110.593646,110.160102 90.5876068,118.905495 69.63,118.91" id="Path" fill="#566EAC"></path>
                <path d="M12.24,58.89 C18.9999653,58.89 24.48,64.3700347 24.48,71.13 C24.48,77.8899653 18.9999653,83.37 12.24,83.37 C5.48003466,83.37 0,77.8899653 0,71.13 C0.00551422548,64.37232 5.48232005,58.8955142 12.24,58.89" id="Path" fill="#8B91B6"></path>
                <path d="M125.51,32.17 L135,32.17 L135,40.51 L135.22,40.51 C135.632482,39.4673233 136.236177,38.5109083 137,37.69 C138.050526,36.4596043 139.265234,35.3794901 140.61,34.48 C142.220306,33.3925773 143.96486,32.5186197 145.8,31.88 C147.922088,31.1464014 150.154834,30.7844258 152.4,30.81 C155.898125,30.6998736 159.358699,31.5580959 162.4,33.29 C165.256,35.118765 167.556017,37.6954753 169.05,40.74 C170.660894,37.5560891 173.222665,34.9523793 176.38,33.29 C179.335432,31.6886246 182.638713,30.8370509 186,30.81 C189.493683,30.6672918 192.97161,31.3525978 196.15,32.81 C198.638937,34.0443138 200.775198,35.8881721 202.36,38.17 C203.890648,40.4561911 204.944962,43.027355 205.46,45.73 C206.025823,48.6087543 206.307176,51.5361749 206.300134,54.47 L206.300134,85.63 L196.12,85.63 L196.12,55.85 C196.124581,53.890033 195.994273,51.932074 195.73,49.99 C195.512051,48.2329077 194.955082,46.5348324 194.09,44.99 C193.252418,43.554046 192.04789,42.3667751 190.6,41.55 C188.745625,40.6071978 186.678006,40.1626598 184.6,40.26 C179.706667,40.26 176.21,41.7633333 174.11,44.77 C172.01,47.7766667 170.973333,51.66 171,56.42 L171,85.63 L160.82,85.63 L160.82,57.63 C160.834495,55.2905642 160.700894,52.9525565 160.42,50.63 C160.217507,48.7282523 159.682723,46.8768183 158.84,45.16 C158.085312,43.6557045 156.911431,42.4019435 155.46,41.55 C153.634492,40.606749 151.592451,40.1617772 149.54,40.26 C147.735506,40.2565493 145.949211,40.6206133 144.29,41.33 C142.584394,42.0521813 141.063404,43.1493448 139.84,44.54 C138.465873,46.135934 137.428442,47.9931066 136.79,50 C135.991789,52.5350179 135.610164,55.1827509 135.66,57.84 L135.66,85.63 L125.51,85.63 L125.51,32.17 Z" id="Path" fill="#28336D"></path>
                <path d="M220,13 C219.977259,11.0233549 220.769337,9.12453953 222.19,7.75 C223.57612,6.34966581 225.464654,5.5617603 227.435,5.5617603 C229.405346,5.5617603 231.29388,6.34966581 232.68,7.75 C234.107353,9.120768 234.903711,11.0211671 234.88,13 C234.904544,14.9760753 234.107831,16.8737004 232.68,18.24 C231.297911,19.6478497 229.407869,20.4409734 227.435,20.4409734 C225.462131,20.4409734 223.572089,19.6478497 222.19,18.24 C220.768876,16.8699067 219.976451,14.9738784 220,13 L220,13 Z M222.36,32.18 L232.52,32.18 L232.52,85.63 L222.4,85.63 L222.36,32.18 Z" id="Shape" fill="#28336D"></path>
                <path d="M286.92,46.38 C285.222625,44.5586234 283.218933,43.0490849 281,41.92 C278.684978,40.8559026 276.157062,40.3359524 273.61,40.4 C271.102183,40.342613 268.614756,40.8626803 266.34,41.92 C264.315484,42.9018608 262.540742,44.331229 261.15,46.1 C259.730897,47.9167551 258.662673,49.9819882 258,52.19 C257.279384,54.5079288 256.918522,56.9226661 256.93,59.35 C256.916003,61.755448 257.336063,64.1436923 258.17,66.4 C258.952579,68.5435339 260.140914,70.5161692 261.67,72.21 C263.180353,73.8719663 265.023654,75.1973709 267.08,76.1 C269.323117,77.0691316 271.746804,77.5497783 274.19,77.51 C276.713924,77.5793289 279.219546,77.0624587 281.51,76 C283.659301,74.8898341 285.574283,73.3755051 287.15,71.54 L294.37,78.76 C291.87597,81.5958803 288.713813,83.7647076 285.17,85.07 C281.610108,86.3659093 277.848381,87.0193866 274.06,87 C270.190497,87.0600921 266.345067,86.3812871 262.73,85 C259.420769,83.7249618 256.406095,81.7889012 253.87,79.31 C251.356498,76.8131084 249.397279,73.8146509 248.12,70.51 C246.742414,66.8904324 246.063757,63.0424475 246.12,59.17 C246.068481,55.2816661 246.746881,51.4181779 248.12,47.78 C250.639127,41.02373 255.904969,35.6524983 262.61,33 C266.255112,31.567734 270.143941,30.8578953 274.06,30.91 C277.901012,30.8991745 281.710053,31.6080699 285.29,33 C288.839044,34.3790804 292.021717,36.5590399 294.59,39.37 L286.92,46.38 Z" id="Path" fill="#28336D"></path>
                <path d="M334.48,45.59 C333.24138,44.0558408 331.720719,42.7727834 330,41.81 C328.00887,40.7390602 325.769608,40.2146105 323.51,40.29 C321.325507,40.2329871 319.165105,40.7575576 317.25,41.81 C315.584017,42.6598813 314.55352,44.3903377 314.6,46.26 C314.542635,47.6990074 315.098747,49.0947387 316.13,50.1 C317.177156,51.1055207 318.401015,51.9089961 319.74,52.47 C321.169119,53.0824285 322.661496,53.5351722 324.19,53.82 L328.25,54.61 C330.340559,55.1120065 332.395155,55.7534415 334.4,56.53 C336.222081,57.2132934 337.913316,58.2043573 339.4,59.46 C340.794971,60.6733008 341.910553,62.1743899 342.67,63.86 C343.513782,65.8574105 343.919566,68.0124971 343.86,70.18 C343.938604,72.8805561 343.274481,75.5508846 341.94,77.9 C340.694438,80.007593 338.984364,81.8031704 336.94,83.15 C334.822185,84.5369963 332.471031,85.5296307 330,86.08 C327.429438,86.6774114 324.79907,86.979367 322.16,86.98 C318.177262,87.0743408 314.214046,86.3951263 310.49,84.98 C306.844932,83.4040308 303.723433,80.8235917 301.49,77.54 L309.16,71.22 C310.831206,72.8908525 312.686376,74.3669369 314.69,75.62 C316.935643,76.95764 319.517501,77.6239258 322.13,77.54 C323.436883,77.5390585 324.740273,77.4050338 326.02,77.14 C327.244927,76.9144578 328.426291,76.4959173 329.52,75.9 C330.492576,75.3756813 331.338951,74.6453416 332,73.76 C332.657079,72.8987148 333.008892,71.8432753 333,70.76 C333.059659,69.369126 332.554778,68.0131581 331.6,67 C330.641747,66.0086307 329.491738,65.2226774 328.22,64.69 C326.856965,64.1160533 325.444456,63.6675314 324,63.35 C322.54,63.01 321.24,62.73 320.11,62.51 C317.93,61.9766667 315.863333,61.3733333 313.91,60.7 C312.063566,60.0728359 310.326077,59.1619192 308.76,58 C307.244125,56.8693096 306.008895,55.4048255 305.15,53.72 C304.185829,51.7173406 303.719285,49.5115467 303.79,47.29 C303.731621,44.7493946 304.334675,42.2372471 305.54,40 C306.683451,37.967552 308.265042,36.2151622 310.17,34.87 C312.160078,33.4992667 314.372895,32.4842132 316.71,31.87 C322.579918,30.2197248 328.832294,30.5715749 334.48,32.87 C337.771944,34.2156412 340.539896,36.5906781 342.37,39.64 L334.48,45.59 Z" id="Path" fill="#28336D"></path>
                <polygon id="Path" fill="#28336D" points="368.56 15.92 342.84 15.92 342.84 5.77 405.1 5.77 405.1 15.92 379.38 15.92 379.38 85.63 368.56 85.63"></polygon>
                <path d="M409.16,62.62 C409.131346,64.840828 409.657226,67.033715 410.69,69 C411.680369,70.8884842 413.040716,72.5583105 414.69,73.91 C416.403201,75.297333 418.350452,76.3674744 420.44,77.07 C422.617968,77.8211435 424.906144,78.2030693 427.21,78.2 C430.107155,78.2678148 432.963115,77.5043747 435.44,76 C437.885971,74.4271248 440.058015,72.4645154 441.87,70.19 L449.54,76 C443.9,83.3333333 436.006667,87 425.86,87 C421.938783,87.0577237 418.045667,86.330102 414.41,84.86 C411.124662,83.5282908 408.161838,81.5098882 405.72,78.94 C403.315129,76.3573284 401.454835,73.316922 400.25,70 C398.946417,66.4424425 398.29598,62.6787183 398.33,58.89 C398.296806,55.0859247 399.006757,51.3119733 400.42,47.78 C401.740462,44.4650843 403.693431,41.4388307 406.17,38.87 C408.66102,36.3433452 411.637362,34.3466449 414.92,33 C418.428105,31.5310891 422.196852,30.7861832 426,30.81 C430.139014,30.685575 434.24939,31.5350528 438,33.29 C441.132168,34.8372637 443.886881,37.0526402 446.07,39.78 C448.168832,42.451257 449.721649,45.509321 450.64,48.78 C451.55552,52.1090628 452.013063,55.5473684 452.000272,59 L452.000272,62.61 L409.16,62.62 Z M441.16,54.5 C441.105303,52.3883552 440.741437,50.2961249 440.08,48.29 C439.480724,46.4720361 438.502515,44.8019236 437.21,43.39 C435.872682,41.9616546 434.237313,40.8452331 432.42,40.12 C430.279307,39.2879334 427.996247,38.8836416 425.7,38.93 C423.351605,38.9028805 421.025113,39.3838708 418.88,40.34 C416.924806,41.2148012 415.156036,42.4573534 413.67,44 C412.276717,45.4575055 411.152679,47.1503332 410.35,49 C409.583258,50.7227097 409.178235,52.5844523 409.16,54.47 L441.16,54.5 Z" id="Shape" fill="#28336D"></path>
                <path d="M502.45,46.38 C500.749081,44.5583016 498.742053,43.0488002 496.52,41.92 C494.208249,40.8567224 491.683767,40.3367749 489.14,40.4 C486.628954,40.3425061 484.138254,40.8625425 481.86,41.92 C479.835484,42.9018608 478.060742,44.331229 476.67,46.1 C475.251254,47.9184863 474.180009,49.9830064 473.51,52.19 C472.794253,54.5090399 472.433503,56.923027 472.44,59.35 C472.426003,61.755448 472.846063,64.1436923 473.68,66.4 C474.462579,68.5435339 475.650914,70.5161692 477.18,72.21 C478.693126,73.8688538 480.535721,75.1937511 482.59,76.1 C484.833753,77.0670867 487.256996,77.5476455 489.7,77.51 C492.217305,77.5773168 494.715976,77.0604685 497,76 C499.149301,74.8898341 501.064283,73.3755051 502.64,71.54 L509.86,78.76 C507.369625,81.595469 504.21079,83.7643752 500.67,85.07 C497.119135,86.3607828 493.368169,87.0141551 489.59,87 C485.717163,87.0611218 481.868265,86.3823038 478.25,85 C474.944968,83.7225105 471.934035,81.7866675 469.4,79.31 C466.883362,76.8136801 464.920759,73.8152589 463.64,70.51 C462.262414,66.8904324 461.583757,63.0424475 461.64,59.17 C461.588481,55.2816661 462.266881,51.4181779 463.64,47.78 C464.914495,44.4533718 466.854013,41.4215993 469.34,38.87 C471.840952,36.346795 474.837149,34.3686238 478.14,33.06 C481.78455,31.6257613 485.67377,30.9158512 489.59,30.97 C493.42403,30.9391616 497.229829,31.627733 500.81,33 C504.359044,34.3790804 507.541717,36.5590399 510.11,39.37 L502.45,46.38 Z" id="Path" fill="#28336D"></path>
                <path d="M518.58,0.35 L528.73,0.35 L528.73,40.4 L529,40.4 C530.397994,37.4183052 532.738372,34.9795326 535.66,33.46 C539.01516,31.6429126 542.785232,30.7296868 546.6,30.81 C549.094664,30.8103165 551.57302,31.2121207 553.94,32 C556.248595,32.7538154 558.364607,34.002945 560.14,35.66 C561.994162,37.4406713 563.437699,39.6042704 564.37,42 C565.482376,44.936804 566.01881,48.0603402 565.95,51.2 L565.95,85.6 L555.8,85.6 L555.8,54.05 C555.858012,51.8801786 555.519115,49.7180146 554.8,47.67 C554.223918,46.0606633 553.298404,44.5989647 552.09,43.39 C550.987223,42.3039915 549.649389,41.4862362 548.18,41 C546.709674,40.5108712 545.169539,40.2643145 543.62,40.27 C541.619244,40.2492065 539.631016,40.5879165 537.75,41.27 C535.932278,41.9631158 534.304532,43.0768373 533,44.52 C531.562836,46.1348316 530.48566,48.0369336 529.84,50.1 C529.043474,52.6901078 528.665386,55.3907326 528.72,58.1 L528.72,85.63 L518.58,85.63 L518.58,0.35 Z" id="Path" fill="#28336D"></path>
            </g>
        </g>
    </g>
</svg>