<?xml version="1.0" encoding="UTF-8" standalone="no"?>
<!DOCTYPE svg PUBLIC "-//W3C//DTD SVG 1.1//EN"
 "http://www.w3.org/Graphics/SVG/1.1/DTD/svg11.dtd">
<!-- Generated by graphviz version 2.40.1 (20161225.0304)
 -->
<!-- Title: dependencies Pages: 1 -->
<svg width="504pt" height="284pt"
 viewBox="0.00 0.00 504.00 284.00" xmlns="http://www.w3.org/2000/svg" xmlns:xlink="http://www.w3.org/1999/xlink">
<g id="graph0" class="graph" transform="scale(1 1) rotate(0) translate(4 280)">
<title>dependencies</title>
<polygon fill="#ffffff" stroke="transparent" points="-4,4 -4,-280 500,-280 500,4 -4,4"/>
<text text-anchor="start" x="227.0091" y="-42.4" font-family="sans-serif" font-weight="bold" font-size="14.00" fill="#000000">Legend</text>
<polygon fill="#ffffb3" stroke="transparent" points="14,-10 14,-30 34,-30 34,-10 14,-10"/>
<text text-anchor="start" x="37.629" y="-15.4" font-family="sans-serif" font-size="14.00" fill="#000000"> &#160;Declarations</text>
<polygon fill="#8dd3c7" stroke="transparent" points="127,-10 127,-30 147,-30 147,-10 127,-10"/>
<text text-anchor="start" x="150.7251" y="-15.4" font-family="sans-serif" font-size="14.00" fill="#000000"> &#160;Module</text>
<polygon fill="#80b1d3" stroke="transparent" points="213,-10 213,-30 233,-30 233,-10 213,-10"/>
<text text-anchor="start" x="236.7812" y="-15.4" font-family="sans-serif" font-size="14.00" fill="#000000"> &#160;Bootstrap</text>
<polygon fill="#fdb462" stroke="transparent" points="310,-10 310,-30 330,-30 330,-10 310,-10"/>
<text text-anchor="start" x="333.6732" y="-15.4" font-family="sans-serif" font-size="14.00" fill="#000000"> &#160;Providers</text>
<polygon fill="#fb8072" stroke="transparent" points="406,-10 406,-30 426,-30 426,-10 406,-10"/>
<text text-anchor="start" x="429.7258" y="-15.4" font-family="sans-serif" font-size="14.00" fill="#000000"> &#160;Exports</text>
<g id="clust1" class="cluster">
<title>cluster_SharedModule</title>
<polygon fill="none" stroke="#000000" stroke-dasharray="1,5" points="124.5,-70 124.5,-268 371.5,-268 371.5,-70 124.5,-70"/>
</g>
<g id="clust2" class="cluster">
<title>cluster_SharedModule_declarations</title>
<polygon fill="none" stroke="#000000" points="136.5,-78 136.5,-130 360.5,-130 360.5,-78 136.5,-78"/>
</g>
<g id="clust6" class="cluster">
<title>cluster_SharedModule_exports</title>
<polygon fill="none" stroke="#000000" points="132.5,-208 132.5,-260 363.5,-260 363.5,-208 132.5,-208"/>
</g>
<!-- ChartFilterPipe -->
<g id="node1" class="node">
<title>ChartFilterPipe</title>
<polygon fill="#ffffb3" stroke="#000000" points="352.8203,-122 250.1797,-122 250.1797,-86 352.8203,-86 352.8203,-122"/>
<text text-anchor="middle" x="301.5" y="-99.8" font-family="Times,serif" font-size="14.00" fill="#000000">ChartFilterPipe</text>
</g>
<!-- SharedModule -->
<g id="node3" class="node">
<title>SharedModule</title>
<polygon fill="#8dd3c7" stroke="#000000" points="238.9231,-187 235.9231,-191 214.9231,-191 211.9231,-187 140.0769,-187 140.0769,-151 238.9231,-151 238.9231,-187"/>
<text text-anchor="middle" x="189.5" y="-164.8" font-family="Times,serif" font-size="14.00" fill="#000000">SharedModule</text>
</g>
<!-- ChartFilterPipe&#45;&gt;SharedModule -->
<g id="edge1" class="edge">
<title>ChartFilterPipe&#45;&gt;SharedModule</title>
<path fill="none" stroke="#000000" d="M318.5533,-122.0225C318.5533,-139.3734 318.5533,-163 318.5533,-163 318.5533,-163 249.0263,-163 249.0263,-163"/>
<polygon fill="#000000" stroke="#000000" points="249.0263,-159.5001 239.0263,-163 249.0263,-166.5001 249.0263,-159.5001"/>
</g>
<!-- CvFilterPipe -->
<g id="node2" class="node">
<title>CvFilterPipe</title>
<polygon fill="#ffffb3" stroke="#000000" points="232.0551,-122 144.9449,-122 144.9449,-86 232.0551,-86 232.0551,-122"/>
<text text-anchor="middle" x="188.5" y="-99.8" font-family="Times,serif" font-size="14.00" fill="#000000">CvFilterPipe</text>
</g>
<!-- CvFilterPipe&#45;&gt;SharedModule -->
<g id="edge2" class="edge">
<title>CvFilterPipe&#45;&gt;SharedModule</title>
<path fill="none" stroke="#000000" d="M188.5,-122.1061C188.5,-122.1061 188.5,-140.991 188.5,-140.991"/>
<polygon fill="#000000" stroke="#000000" points="185.0001,-140.9909 188.5,-150.991 192.0001,-140.991 185.0001,-140.9909"/>
</g>
<!-- ChartFilterPipe  -->
<g id="node4" class="node">
<title>ChartFilterPipe </title>
<polygon fill="#fb8072" stroke="#000000" points="355.32,-252 249.68,-252 249.68,-216 355.32,-216 355.32,-252"/>
<text text-anchor="middle" x="302.5" y="-229.8" font-family="Times,serif" font-size="14.00" fill="#000000">ChartFilterPipe </text>
</g>
<!-- SharedModule&#45;&gt;ChartFilterPipe  -->
<g id="edge3" class="edge">
<title>SharedModule&#45;&gt;ChartFilterPipe </title>
<path fill="none" stroke="#000000" stroke-dasharray="5,2" d="M238.92,-175C261.9904,-175 284.4467,-175 284.4467,-175 284.4467,-175 284.4467,-205.9775 284.4467,-205.9775"/>
<polygon fill="#000000" stroke="#000000" points="280.9468,-205.9774 284.4467,-215.9775 287.9468,-205.9775 280.9468,-205.9774"/>
</g>
<!-- CvFilterPipe  -->
<g id="node5" class="node">
<title>CvFilterPipe </title>
<polygon fill="#fb8072" stroke="#000000" points="232.054,-252 140.946,-252 140.946,-216 232.054,-216 232.054,-252"/>
<text text-anchor="middle" x="186.5" y="-229.8" font-family="Times,serif" font-size="14.00" fill="#000000">CvFilterPipe </text>
</g>
<!-- SharedModule&#45;&gt;CvFilterPipe  -->
<g id="edge4" class="edge">
<title>SharedModule&#45;&gt;CvFilterPipe </title>
<path fill="none" stroke="#000000" stroke-dasharray="5,2" d="M186.5,-187.1061C186.5,-187.1061 186.5,-205.991 186.5,-205.991"/>
<polygon fill="#000000" stroke="#000000" points="183.0001,-205.9909 186.5,-215.991 190.0001,-205.991 183.0001,-205.9909"/>
</g>
</g>
</svg>
