<svg height="512pt" viewBox="0 -4 512 512" width="512pt" xmlns="http://www.w3.org/2000/svg"><path d="m504.5 265.277344c0-14.140625-11.257812-25.605469-25.144531-25.605469-13.882813 0-25.140625 11.464844-25.140625 25.605469 0 14.144531 11.257812 25.609375 25.140625 25.609375 13.886719 0 25.144531-11.464844 25.144531-25.609375zm0 0" fill="#e1e0de"/><path d="m416.101562 402.21875h-46.554687v71.398438h46.554687c4.613282 0 8.351563-3.804688 8.351563-8.503907v-54.390625c0-4.699218-3.738281-8.503906-8.351563-8.503906zm0 0" fill="#676a75"/><path d="m378.488281 495.671875h-319.351562c-7.527344 0-13.628907-6.105469-13.628907-13.632813v-88.242187c0-7.527344 6.101563-13.628906 13.628907-13.628906h319.351562c7.527344 0 13.632813 6.101562 13.632813 13.628906v88.242187c0 7.527344-6.105469 13.632813-13.632813 13.632813zm0 0" fill="#525467"/><path d="m378.488281 380.167969h-36.722656v64.597656c0 12.335937-10 22.335937-22.335937 22.335937h-260.292969c-7.527344 0-13.628907-6.105468-13.628907-13.632812v28.570312c0 7.527344 6.101563 13.632813 13.628907 13.632813h319.351562c7.527344 0 13.632813-6.105469 13.632813-13.632813v-88.242187c0-7.527344-6.105469-13.628906-13.632813-13.628906zm0 0" fill="#3c3f4e"/><path d="m430.125 222.710938c0-118.859376-94.605469-215.210938-211.3125-215.210938-116.703125 0-211.3125 96.351562-211.3125 215.210938 0 118.855468 94.609375 215.207031 211.3125 215.207031 116.707031 0 211.3125-96.351563 211.3125-215.207031zm0 0" fill="#f43b45"/><path d="m218.8125 7.5c-8.46875 0-16.816406.523438-25.027344 1.507812 104.90625 12.609376 186.285156 103.46875 186.285156 213.703126 0 110.230468-81.378906 201.089843-186.285156 213.699218 8.210938.984375 16.558594 1.507813 25.027344 1.507813 116.707031 0 211.3125-96.351563 211.3125-215.207031 0-118.859376-94.605469-215.210938-211.3125-215.210938zm0 0" fill="#cf3735"/><path d="m272.703125 222.710938c0-30.3125-24.128906-54.886719-53.890625-54.886719s-53.886719 24.574219-53.886719 54.886719c0 30.308593 24.125 54.882812 53.886719 54.882812s53.890625-24.574219 53.890625-54.882812zm0 0" fill="#d6d6d6"/><path d="m218.8125 167.828125c-9.09375 0-17.660156 2.304687-25.175781 6.355469 17.074219 9.210937 28.710937 27.480468 28.710937 48.527344 0 21.046874-11.636718 39.316406-28.710937 48.523437 7.515625 4.054687 16.082031 6.359375 25.175781 6.359375 29.761719 0 53.890625-24.574219 53.890625-54.882812 0-30.3125-24.128906-54.882813-53.890625-54.882813zm0 0" fill="#bebebe"/><path d="m107.453125 111.351562c2.929687-2.929687 2.929687-7.679687 0-10.605468-2.925781-2.929688-7.675781-2.929688-10.605469 0-65.820312 65.820312-64.65625 174.082031 2.59375 241.332031 1.464844 1.46875 6.976563 3.550781 10.609375 0 2.960938-2.890625 2.925781-7.675781 0-10.605469-61.40625-61.402344-62.570312-160.148437-2.597656-220.121094zm0 0"/><path d="m340.777344 344.675781c65.820312-65.824219 64.660156-174.085937-2.59375-241.335937-2.929688-2.929688-7.675782-2.929688-10.605469 0-2.929687 2.929687-2.929687 7.675781 0 10.605468 61.402344 61.402344 62.566406 160.148438 2.59375 220.121094-2.929687 2.929688-2.917969 7.667969 0 10.609375 3.078125 3.097657 9.140625 1.464844 10.605469 0zm0 0"/><path d="m136.695312 315.433594c2.921876-2.9375 2.929688-7.675782 0-10.605469-27.320312-27.320313-40.199218-66.070313-34.449218-103.648437.011718-.070313.019531-.140626.027344-.210938.046874-.390625 5.125-39.179688 31.511718-62.671875 3.09375-2.753906 3.367188-7.496094.613282-10.589844-2.753907-3.09375-7.496094-3.367187-10.589844-.613281-30.074219 26.777344-36.011719 68.859375-36.40625 71.914062-6.433594 42.25 8.027344 85.765626 38.6875 116.425782 1.464844 1.464844 6.847656 3.777344 10.605468 0zm0 0"/><path d="m335.351562 241.847656c-.046874.390625-5.25 39.300782-31.507812 62.679688-3.097656 2.753906-3.363281 7.492187-.617188 10.589844 3.484376 3.925781 9.160157 1.886718 10.589844.613281 30.070313-26.769531 36.011719-68.847657 36.40625-71.910157 6.433594-42.25-8.023437-85.769531-38.683594-116.429687-2.929687-2.929687-7.679687-2.929687-10.605468 0-2.929688 2.929687-2.929688 7.679687 0 10.605469 27.320312 27.320312 40.199218 66.070312 34.449218 103.648437-.011718.066407-.023437.140625-.03125.203125zm0 0"/><path d="m40.671875 106.65625c3.425781 2.328125 8.089844 1.4375 10.417969-1.992188 38.121094-56.144531 100.820312-89.664062 167.722656-89.664062 112.382812 0 203.8125 93.179688 203.8125 207.710938 0 27.546874-5.203125 54.300781-15.46875 79.519531-1.5625 3.835937.292969 8.195312 4.121094 9.777343 3.597656 1.484376 8.589844-1.210937 9.773437-4.121093 11-27.027344 16.578125-55.683594 16.578125-85.175781 0-59.464844-22.746094-115.375-64.042968-157.433594-41.332032-42.09375-96.300782-65.277344-154.773438-65.277344-71.875 0-139.214844 35.976562-180.132812 96.238281-2.328126 3.429688-1.433594 8.09375 1.992187 10.417969zm0 0"/><path d="m157.425781 222.710938c0 34.398437 27.539063 62.382812 61.386719 62.382812 33.851562 0 61.390625-27.984375 61.390625-62.382812 0-34.398438-27.539063-62.382813-61.390625-62.382813-33.847656 0-61.386719 27.984375-61.386719 62.382813zm107.777344 0c0 26.125-20.8125 47.382812-46.390625 47.382812s-46.386719-21.257812-46.386719-47.382812c0-26.128907 20.808594-47.382813 46.386719-47.382813s46.390625 21.253906 46.390625 47.382813zm0 0"/><path d="m479.355469 232.171875c-18 0-32.640625 14.851563-32.640625 33.105469 0 15.285156 10.265625 28.183594 24.171875 31.976562l-1.800781 59.441406c-.804688 26.597657-15.039063 50.445313-37.132813 63.488282v-9.464844c0-8.824219-7.109375-16-15.851563-16h-16.480468v-.921875c0-10.976563-8.414063-20.023437-19.128906-21.035156 8.941406-9.972657 17.011718-20.773438 24.058593-32.261719 2.164063-3.53125 1.058594-8.148438-2.472656-10.3125-3.53125-2.167969-8.148437-1.0625-10.316406 2.46875-18.003907 29.351562-43.128907 53.871094-72.65625 70.917969-30.425781 17.5625-65.109375 26.84375-100.292969 26.84375-112.382812 0-203.8125-93.175781-203.8125-207.707031 0-30.855469 6.480469-60.550782 19.257812-88.25 1.734376-3.761719.089844-8.21875-3.671874-9.953126-3.761719-1.734374-8.214844-.09375-9.949219 3.667969-13.695313 29.6875-20.636719 61.492188-20.636719 94.535157 0 56.046874 20.207031 108.941406 57.113281 150.054687-10.703125 1.019531-19.105469 10.0625-19.105469 21.03125v88.242187c0 11.652344 9.476563 21.132813 21.128907 21.132813h319.351562c11.652344 0 21.132813-9.480469 21.132813-21.132813v-.921874h16.484375c8.738281 0 15.847656-7.175782 15.847656-16v-27.996094c30.792969-14.371094 51.074219-45.21875 52.125-79.96875l1.800781-59.429688c14.882813-3.074218 26.121094-16.453125 26.121094-32.445312 0-18.253906-14.644531-33.105469-32.644531-33.105469zm-94.734375 249.867187c0 3.378907-2.75 6.132813-6.132813 6.132813h-319.351562c-3.378907 0-6.128907-2.75-6.128907-6.132813v-88.242187c0-3.378906 2.75-6.128906 6.128907-6.128906h12.65625c40.332031 37.320312 92.132812 57.75 147.019531 57.75 37.8125 0 75.085938-9.976563 107.789062-28.855469 14.089844-8.128906 27.242188-17.847656 39.203126-28.898438h12.683593c3.378907 0 6.132813 2.75 6.132813 6.132813zm32.332031-16.921874c0 .550781-.382813 1-.851563 1h-16.480468v-56.398438h16.480468c.46875 0 .851563.449219.851563 1.003906zm62.402344-181.730469c-9.726563 0-17.640625-8.125-17.640625-18.109375 0-9.980469 7.914062-18.105469 17.640625-18.105469 9.730469 0 17.644531 8.125 17.644531 18.105469 0 9.984375-7.914062 18.109375-17.644531 18.109375zm0 0"/></svg>