<?xml version="1.0" encoding="iso-8859-1"?>
<!-- Generator: Adobe Illustrator 19.0.0, SVG Export Plug-In . SVG Version: 6.00 Build 0)  -->
<svg version="1.1" id="Capa_1" xmlns="http://www.w3.org/2000/svg" xmlns:xlink="http://www.w3.org/1999/xlink" x="0px" y="0px"
	 viewBox="0 0 511.999 511.999" style="enable-background:new 0 0 511.999 511.999;" xml:space="preserve">
<path style="fill:#3E322E;" d="M480.913,317.634c0.192-1.75,0.075-3.534-0.364-5.27c2.708,10.833-59.062-237.246-60.001-241.003
	c-0.447-1.809-1.227-3.505-2.283-5.006l-98.64,68.64L220.319,265.3l118.121,59.747L480.913,317.634z"/>
<path style="fill:#53433F;" d="M418.264,66.356c-1.057-1.501-2.39-2.809-3.942-3.842c3.25,2.166-73.265-48.844-90.001-60.001
	c-2.234-1.494-4.786-2.325-7.383-2.485l-67.715,103.157L220.319,265.3L418.264,66.356z"/>
<path style="fill:#68544F;" d="M316.938,0.028c-2.596-0.159-5.237,0.353-7.646,1.547C315.783-1.671,133.2,89.62,129.289,91.576
	c-1.589,0.791-3.01,1.853-4.208,3.126l17.896,116.293l77.342,54.305L316.938,0.028z"/>
<path style="fill:#53433F;" d="M125.424,94.702c-1.202,1.273-2.18,2.756-2.878,4.389c5.91-13.74-87.218,203.768-90.329,211.003
	c-1.117,2.593-1.455,5.387-1.062,8.075l94.927,3.566l94.927-56.435L125.424,94.702z"/>
<path style="fill:#3E322E;" d="M31.154,318.169c0.392,2.688,1.512,5.27,3.314,7.438c-9.571-11.484,144.965,174.956,150.002,181.002
	c1.428,1.707,3.197,3.054,5.165,3.975l45.394-123.554L220.318,265.3L31.154,318.169z"/>
<path style="fill:#68544F;" d="M189.636,510.584c1.968,0.921,4.136,1.415,6.363,1.415c-6.357,0,176.095,0,180.002,0
	c2.842,0,5.559-0.802,7.885-2.239l-59.196-133.764L220.319,265.3L189.636,510.584z"/>
<path style="fill:#53433F;" d="M479.421,322.707c0.798-1.604,1.3-3.322,1.492-5.072l-260.593-52.334l163.566,244.46
	c2.325-1.437,4.259-3.51,5.533-6.052C386.174,510.2,477.465,326.618,479.421,322.707z"/>
<g>
</g>
<g>
</g>
<g>
</g>
<g>
</g>
<g>
</g>
<g>
</g>
<g>
</g>
<g>
</g>
<g>
</g>
<g>
</g>
<g>
</g>
<g>
</g>
<g>
</g>
<g>
</g>
<g>
</g>
</svg>
