<svg height="511pt" viewBox="-35 1 511 511.99926" width="511pt" xmlns="http://www.w3.org/2000/svg"><path d="m220.503906 9.988281-210.003906 120.003907v252.003906l210.003906 120.003906 210.003906-120.003906v-252.003906zm0 0" fill="#e8546a"/><path d="m350.507812 333.996094v2.710937l-130.003906 71.988281-130-71.988281v-161.425781l130-71.988281 130.003906 71.988281zm0 0" fill="#c42b4c"/><path d="m130.503906 291.996094c-5.519531 0-10 4.480468-10 10 0 5.519531 4.480469 10 10 10 5.519532 0 10-4.480469 10-10 0-5.519532-4.480468-10-10-10zm0 0"/><path d="m435.503906 121.332031c-.011718-.007812-.023437-.015625-.035156-.023437l-210.003906-120c-3.042969-1.738282-6.847656-1.75-9.921875 0l-210.003907 120c-.011718.007812-.023437.015625-.035156.023437-3.003906 1.730469-5.003906 5.03125-5.003906 8.660157v252.003906c0 6.066406 5.023438 8.632812 5.125 8.730468.011719.007813 209.917969 119.953126 209.917969 119.953126.019531.011718.042969.023437.066406.035156 1.550781.871094 3.308594 1.285156 4.894531 1.285156 1.632813 0 3.371094-.429688 4.894532-1.285156.023437-.011719.046874-.023438.066406-.035156 0 0 209.902344-119.945313 209.914062-119.949219 3.253906-2.367188 5.128906-4.171875 5.128906-8.734375v-252.003906c0-.046876-.007812-.09375-.007812-.140626-.046875-3.664062-2.101562-6.855468-4.996094-8.519531zm-205-94.109375 180.214844 102.980469-58.0625 34.839844-122.152344-67.644531zm-20 0v70.175782l-122.152344 67.644531-58.0625-34.839844zm-190.003906 120.429688 60.003906 36.003906v144.675781l-60.003906 36.003907zm190.003906 337.113281-180.214844-102.980469 58.066407-34.839844 122.148437 67.644532zm10-87.5-120-66.453125v-149.636719l120-66.453125 120.003906 66.453125v149.636719zm10 87.5v-70.175781l122.152344-67.644532 58.0625 34.839844zm190.003906-120.429687-60-36.003907v-144.675781l60-36.003906zm0 0"/><path d="m175.660156 162.421875-50.003906 27.691406c-3.179688 1.761719-5.152344 5.113281-5.152344 8.75v63.128907c0 5.523437 4.476563 10 10 10 5.519532 0 10-4.476563 10-10v-57.238282l44.84375-24.835937c4.832032-2.675781 6.582032-8.761719 3.90625-13.589844-2.675781-4.832031-8.761718-6.578125-13.59375-3.90625zm0 0"/></svg>