<?xml version="1.0" encoding="UTF-8" standalone="no"?>
<!DOCTYPE svg PUBLIC "-//W3C//DTD SVG 1.1//EN"
 "http://www.w3.org/Graphics/SVG/1.1/DTD/svg11.dtd">
<!-- Generated by graphviz version 2.40.1 (20161225.0304)
 -->
<!-- Title: dependencies Pages: 1 -->
<svg width="1634pt" height="211pt"
 viewBox="0.00 0.00 1634.00 211.00" xmlns="http://www.w3.org/2000/svg" xmlns:xlink="http://www.w3.org/1999/xlink">
<g id="graph0" class="graph" transform="scale(1 1) rotate(0) translate(4 207)">
<title>dependencies</title>
<polygon fill="#ffffff" stroke="transparent" points="-4,4 -4,-207 1630,-207 1630,4 -4,4"/>
<text text-anchor="start" x="792.0091" y="-42.4" font-family="sans-serif" font-weight="bold" font-size="14.00" fill="#000000">Legend</text>
<polygon fill="#ffffb3" stroke="transparent" points="579,-10 579,-30 599,-30 599,-10 579,-10"/>
<text text-anchor="start" x="602.629" y="-15.4" font-family="sans-serif" font-size="14.00" fill="#000000"> &#160;Declarations</text>
<polygon fill="#8dd3c7" stroke="transparent" points="692,-10 692,-30 712,-30 712,-10 692,-10"/>
<text text-anchor="start" x="715.7251" y="-15.4" font-family="sans-serif" font-size="14.00" fill="#000000"> &#160;Module</text>
<polygon fill="#80b1d3" stroke="transparent" points="778,-10 778,-30 798,-30 798,-10 778,-10"/>
<text text-anchor="start" x="801.7812" y="-15.4" font-family="sans-serif" font-size="14.00" fill="#000000"> &#160;Bootstrap</text>
<polygon fill="#fdb462" stroke="transparent" points="875,-10 875,-30 895,-30 895,-10 875,-10"/>
<text text-anchor="start" x="898.6732" y="-15.4" font-family="sans-serif" font-size="14.00" fill="#000000"> &#160;Providers</text>
<polygon fill="#fb8072" stroke="transparent" points="971,-10 971,-30 991,-30 991,-10 971,-10"/>
<text text-anchor="start" x="994.7258" y="-15.4" font-family="sans-serif" font-size="14.00" fill="#000000"> &#160;Exports</text>
<g id="clust1" class="cluster">
<title>cluster_StatisticsModule</title>
<polygon fill="none" stroke="#000000" stroke-dasharray="1,5" points="8,-70 8,-195 1618,-195 1618,-70 8,-70"/>
</g>
<g id="clust2" class="cluster">
<title>cluster_StatisticsModule_declarations</title>
<polygon fill="none" stroke="#000000" points="600,-78 600,-130 1610,-130 1610,-78 600,-78"/>
</g>
<g id="clust8" class="cluster">
<title>cluster_StatisticsModule_imports</title>
<polygon fill="none" stroke="#000000" points="322,-78 322,-130 592,-130 592,-78 322,-78"/>
</g>
<g id="clust11" class="cluster">
<title>cluster_StatisticsModule_providers</title>
<polygon fill="none" stroke="#000000" points="16,-78 16,-130 314,-130 314,-78 16,-78"/>
</g>
<!-- MainComponent -->
<g id="node1" class="node">
<title>MainComponent</title>
<polygon fill="#ffffb3" stroke="#000000" points="1602.3823,-122 1491.6177,-122 1491.6177,-86 1602.3823,-86 1602.3823,-122"/>
<text text-anchor="middle" x="1547" y="-99.8" font-family="Times,serif" font-size="14.00" fill="#000000">MainComponent</text>
</g>
<!-- StatisticsModule -->
<g id="node6" class="node">
<title>StatisticsModule</title>
<polygon fill="#8dd3c7" stroke="#000000" points="832.1038,-187 829.1038,-191 808.1038,-191 805.1038,-187 721.8962,-187 721.8962,-151 832.1038,-151 832.1038,-187"/>
<text text-anchor="middle" x="777" y="-164.8" font-family="Times,serif" font-size="14.00" fill="#000000">StatisticsModule</text>
</g>
<!-- MainComponent&#45;&gt;StatisticsModule -->
<g id="edge1" class="edge">
<title>MainComponent&#45;&gt;StatisticsModule</title>
<path fill="none" stroke="#000000" d="M1547,-122.2921C1547,-144.2057 1547,-178 1547,-178 1547,-178 842.0675,-178 842.0675,-178"/>
<polygon fill="#000000" stroke="#000000" points="842.0675,-174.5001 832.0675,-178 842.0675,-181.5001 842.0675,-174.5001"/>
</g>
<!-- NonConformitiesInformationComponent -->
<g id="node2" class="node">
<title>NonConformitiesInformationComponent</title>
<polygon fill="#ffffb3" stroke="#000000" points="1473.1867,-122 1226.8133,-122 1226.8133,-86 1473.1867,-86 1473.1867,-122"/>
<text text-anchor="middle" x="1350" y="-99.8" font-family="Times,serif" font-size="14.00" fill="#000000">NonConformitiesInformationComponent</text>
</g>
<!-- NonConformitiesInformationComponent&#45;&gt;StatisticsModule -->
<g id="edge2" class="edge">
<title>NonConformitiesInformationComponent&#45;&gt;StatisticsModule</title>
<path fill="none" stroke="#000000" d="M1350,-122.1061C1350,-141.3391 1350,-169 1350,-169 1350,-169 842.2017,-169 842.2017,-169"/>
<polygon fill="#000000" stroke="#000000" points="842.2018,-165.5001 832.2017,-169 842.2017,-172.5001 842.2018,-165.5001"/>
</g>
<!-- NonConformitiesListComponent -->
<g id="node3" class="node">
<title>NonConformitiesListComponent</title>
<polygon fill="#ffffb3" stroke="#000000" points="1208.5968,-122 1007.4032,-122 1007.4032,-86 1208.5968,-86 1208.5968,-122"/>
<text text-anchor="middle" x="1108" y="-99.8" font-family="Times,serif" font-size="14.00" fill="#000000">NonConformitiesListComponent</text>
</g>
<!-- NonConformitiesListComponent&#45;&gt;StatisticsModule -->
<g id="edge3" class="edge">
<title>NonConformitiesListComponent&#45;&gt;StatisticsModule</title>
<path fill="none" stroke="#000000" d="M1108,-122.027C1108,-138.3976 1108,-160 1108,-160 1108,-160 842.402,-160 842.402,-160"/>
<polygon fill="#000000" stroke="#000000" points="842.402,-156.5001 832.402,-160 842.4019,-163.5001 842.402,-156.5001"/>
</g>
<!-- NonConformitiesSelectorComponent -->
<g id="node4" class="node">
<title>NonConformitiesSelectorComponent</title>
<polygon fill="#ffffb3" stroke="#000000" points="989.6867,-122 764.3133,-122 764.3133,-86 989.6867,-86 989.6867,-122"/>
<text text-anchor="middle" x="877" y="-99.8" font-family="Times,serif" font-size="14.00" fill="#000000">NonConformitiesSelectorComponent</text>
</g>
<!-- NonConformitiesSelectorComponent&#45;&gt;StatisticsModule -->
<g id="edge4" class="edge">
<title>NonConformitiesSelectorComponent&#45;&gt;StatisticsModule</title>
<path fill="none" stroke="#000000" d="M798.2293,-122.1061C798.2293,-122.1061 798.2293,-140.991 798.2293,-140.991"/>
<polygon fill="#000000" stroke="#000000" points="794.7294,-140.9909 798.2293,-150.991 801.7294,-140.991 794.7294,-140.9909"/>
</g>
<!-- SideMenuComponent -->
<g id="node5" class="node">
<title>SideMenuComponent</title>
<polygon fill="#ffffb3" stroke="#000000" points="746.3795,-122 607.6205,-122 607.6205,-86 746.3795,-86 746.3795,-122"/>
<text text-anchor="middle" x="677" y="-99.8" font-family="Times,serif" font-size="14.00" fill="#000000">SideMenuComponent</text>
</g>
<!-- SideMenuComponent&#45;&gt;StatisticsModule -->
<g id="edge5" class="edge">
<title>SideMenuComponent&#45;&gt;StatisticsModule</title>
<path fill="none" stroke="#000000" d="M734.1939,-122.1061C734.1939,-122.1061 734.1939,-140.991 734.1939,-140.991"/>
<polygon fill="#000000" stroke="#000000" points="730.694,-140.9909 734.1939,-150.991 737.694,-140.991 730.694,-140.9909"/>
</g>
<!-- PlotsModule -->
<g id="node7" class="node">
<title>PlotsModule</title>
<polygon fill="#8dd3c7" stroke="#000000" points="583.5593,-122 580.5593,-126 559.5593,-126 556.5593,-122 496.4407,-122 496.4407,-86 583.5593,-86 583.5593,-122"/>
<text text-anchor="middle" x="540" y="-99.8" font-family="Times,serif" font-size="14.00" fill="#000000">PlotsModule</text>
</g>
<!-- PlotsModule&#45;&gt;StatisticsModule -->
<g id="edge6" class="edge">
<title>PlotsModule&#45;&gt;StatisticsModule</title>
<path fill="none" stroke="#000000" d="M540,-122.027C540,-138.3976 540,-160 540,-160 540,-160 711.7331,-160 711.7331,-160"/>
<polygon fill="#000000" stroke="#000000" points="711.7332,-163.5001 721.7331,-160 711.7331,-156.5001 711.7332,-163.5001"/>
</g>
<!-- StatisticsRouterModule -->
<g id="node8" class="node">
<title>StatisticsRouterModule</title>
<polygon fill="#8dd3c7" stroke="#000000" points="478.2063,-122 475.2063,-126 454.2063,-126 451.2063,-122 329.7937,-122 329.7937,-86 478.2063,-86 478.2063,-122"/>
<text text-anchor="middle" x="404" y="-99.8" font-family="Times,serif" font-size="14.00" fill="#000000">StatisticsRouterModule</text>
</g>
<!-- StatisticsRouterModule&#45;&gt;StatisticsModule -->
<g id="edge7" class="edge">
<title>StatisticsRouterModule&#45;&gt;StatisticsModule</title>
<path fill="none" stroke="#000000" d="M404,-122.1061C404,-141.3391 404,-169 404,-169 404,-169 711.5609,-169 711.5609,-169"/>
<polygon fill="#000000" stroke="#000000" points="711.5609,-172.5001 721.5609,-169 711.5609,-165.5001 711.5609,-172.5001"/>
</g>
<!-- ThresholdNonConformityService -->
<g id="node9" class="node">
<title>ThresholdNonConformityService</title>
<ellipse fill="#fdb462" stroke="#000000" cx="165" cy="-104" rx="140.6751" ry="18"/>
<text text-anchor="middle" x="165" y="-99.8" font-family="Times,serif" font-size="14.00" fill="#000000">ThresholdNonConformityService</text>
</g>
<!-- ThresholdNonConformityService&#45;&gt;StatisticsModule -->
<g id="edge8" class="edge">
<title>ThresholdNonConformityService&#45;&gt;StatisticsModule</title>
<path fill="none" stroke="#000000" d="M165,-122.2921C165,-144.2057 165,-178 165,-178 165,-178 711.8804,-178 711.8804,-178"/>
<polygon fill="#000000" stroke="#000000" points="711.8804,-181.5001 721.8804,-178 711.8803,-174.5001 711.8804,-181.5001"/>
</g>
</g>
</svg>
