<?xml version="1.0" encoding="UTF-8" standalone="no"?>
<!DOCTYPE svg PUBLIC "-//W3C//DTD SVG 1.1//EN"
 "http://www.w3.org/Graphics/SVG/1.1/DTD/svg11.dtd">
<!-- Generated by graphviz version 2.40.1 (20161225.0304)
 -->
<!-- Title: dependencies Pages: 1 -->
<svg width="2946pt" height="211pt"
 viewBox="0.00 0.00 2946.00 211.00" xmlns="http://www.w3.org/2000/svg" xmlns:xlink="http://www.w3.org/1999/xlink">
<g id="graph0" class="graph" transform="scale(1 1) rotate(0) translate(4 207)">
<title>dependencies</title>
<polygon fill="#ffffff" stroke="transparent" points="-4,4 -4,-207 2942,-207 2942,4 -4,4"/>
<text text-anchor="start" x="1448.0091" y="-42.4" font-family="sans-serif" font-weight="bold" font-size="14.00" fill="#000000">Legend</text>
<polygon fill="#ffffb3" stroke="transparent" points="1235,-10 1235,-30 1255,-30 1255,-10 1235,-10"/>
<text text-anchor="start" x="1258.629" y="-15.4" font-family="sans-serif" font-size="14.00" fill="#000000"> &#160;Declarations</text>
<polygon fill="#8dd3c7" stroke="transparent" points="1348,-10 1348,-30 1368,-30 1368,-10 1348,-10"/>
<text text-anchor="start" x="1371.7251" y="-15.4" font-family="sans-serif" font-size="14.00" fill="#000000"> &#160;Module</text>
<polygon fill="#80b1d3" stroke="transparent" points="1434,-10 1434,-30 1454,-30 1454,-10 1434,-10"/>
<text text-anchor="start" x="1457.7812" y="-15.4" font-family="sans-serif" font-size="14.00" fill="#000000"> &#160;Bootstrap</text>
<polygon fill="#fdb462" stroke="transparent" points="1531,-10 1531,-30 1551,-30 1551,-10 1531,-10"/>
<text text-anchor="start" x="1554.6732" y="-15.4" font-family="sans-serif" font-size="14.00" fill="#000000"> &#160;Providers</text>
<polygon fill="#fb8072" stroke="transparent" points="1627,-10 1627,-30 1647,-30 1647,-10 1627,-10"/>
<text text-anchor="start" x="1650.7258" y="-15.4" font-family="sans-serif" font-size="14.00" fill="#000000"> &#160;Exports</text>
<g id="clust1" class="cluster">
<title>cluster_ManagementModule</title>
<polygon fill="none" stroke="#000000" stroke-dasharray="1,5" points="8,-70 8,-195 2930,-195 2930,-70 8,-70"/>
</g>
<g id="clust2" class="cluster">
<title>cluster_ManagementModule_declarations</title>
<polygon fill="none" stroke="#000000" points="1471,-78 1471,-130 2922,-130 2922,-78 1471,-78"/>
</g>
<g id="clust11" class="cluster">
<title>cluster_ManagementModule_imports</title>
<polygon fill="none" stroke="#000000" points="994,-78 994,-130 1463,-130 1463,-78 994,-78"/>
</g>
<g id="clust14" class="cluster">
<title>cluster_ManagementModule_providers</title>
<polygon fill="none" stroke="#000000" points="16,-78 16,-130 986,-130 986,-78 16,-78"/>
</g>
<!-- DataSourceComponent -->
<g id="node1" class="node">
<title>DataSourceComponent</title>
<polygon fill="#ffffb3" stroke="#000000" points="2914.1317,-122 2767.8683,-122 2767.8683,-86 2914.1317,-86 2914.1317,-122"/>
<text text-anchor="middle" x="2841" y="-99.8" font-family="Times,serif" font-size="14.00" fill="#000000">DataSourceComponent</text>
</g>
<!-- ManagementModule -->
<g id="node9" class="node">
<title>ManagementModule</title>
<polygon fill="#8dd3c7" stroke="#000000" points="1436.1345,-187 1433.1345,-191 1412.1345,-191 1409.1345,-187 1303.8655,-187 1303.8655,-151 1436.1345,-151 1436.1345,-187"/>
<text text-anchor="middle" x="1370" y="-164.8" font-family="Times,serif" font-size="14.00" fill="#000000">ManagementModule</text>
</g>
<!-- DataSourceComponent&#45;&gt;ManagementModule -->
<g id="edge1" class="edge">
<title>DataSourceComponent&#45;&gt;ManagementModule</title>
<path fill="none" stroke="#000000" d="M2841,-122.3228C2841,-145.6602 2841,-183 2841,-183 2841,-183 1446.5451,-183 1446.5451,-183"/>
<polygon fill="#000000" stroke="#000000" points="1446.5451,-179.5001 1436.5451,-183 1446.5451,-186.5001 1446.5451,-179.5001"/>
</g>
<!-- DataSourceGuideSetListComponent -->
<g id="node2" class="node">
<title>DataSourceGuideSetListComponent</title>
<polygon fill="#ffffb3" stroke="#000000" points="2749.0097,-122 2528.9903,-122 2528.9903,-86 2749.0097,-86 2749.0097,-122"/>
<text text-anchor="middle" x="2639" y="-99.8" font-family="Times,serif" font-size="14.00" fill="#000000">DataSourceGuideSetListComponent</text>
</g>
<!-- DataSourceGuideSetListComponent&#45;&gt;ManagementModule -->
<g id="edge2" class="edge">
<title>DataSourceGuideSetListComponent&#45;&gt;ManagementModule</title>
<path fill="none" stroke="#000000" d="M2639,-122.1554C2639,-144.3519 2639,-179 2639,-179 2639,-179 1446.4402,-179 1446.4402,-179"/>
<polygon fill="#000000" stroke="#000000" points="1446.4403,-175.5001 1436.4402,-179 1446.4402,-182.5001 1446.4403,-175.5001"/>
</g>
<!-- DataSourceListComponent -->
<g id="node3" class="node">
<title>DataSourceListComponent</title>
<polygon fill="#ffffb3" stroke="#000000" points="2511.4101,-122 2342.5899,-122 2342.5899,-86 2511.4101,-86 2511.4101,-122"/>
<text text-anchor="middle" x="2427" y="-99.8" font-family="Times,serif" font-size="14.00" fill="#000000">DataSourceListComponent</text>
</g>
<!-- DataSourceListComponent&#45;&gt;ManagementModule -->
<g id="edge3" class="edge">
<title>DataSourceListComponent&#45;&gt;ManagementModule</title>
<path fill="none" stroke="#000000" d="M2427,-122.2843C2427,-143.3211 2427,-175 2427,-175 2427,-175 1446.5205,-175 1446.5205,-175"/>
<polygon fill="#000000" stroke="#000000" points="1446.5205,-171.5001 1436.5205,-175 1446.5205,-178.5001 1446.5205,-171.5001"/>
</g>
<!-- GuideSetInformationComponent -->
<g id="node4" class="node">
<title>GuideSetInformationComponent</title>
<polygon fill="#ffffb3" stroke="#000000" points="2325.3004,-122 2124.6996,-122 2124.6996,-86 2325.3004,-86 2325.3004,-122"/>
<text text-anchor="middle" x="2225" y="-99.8" font-family="Times,serif" font-size="14.00" fill="#000000">GuideSetInformationComponent</text>
</g>
<!-- GuideSetInformationComponent&#45;&gt;ManagementModule -->
<g id="edge4" class="edge">
<title>GuideSetInformationComponent&#45;&gt;ManagementModule</title>
<path fill="none" stroke="#000000" d="M2225,-122.308C2225,-142.1455 2225,-171 2225,-171 2225,-171 1446.379,-171 1446.379,-171"/>
<polygon fill="#000000" stroke="#000000" points="1446.379,-167.5001 1436.379,-171 1446.3789,-174.5001 1446.379,-167.5001"/>
</g>
<!-- MainSystemComponent -->
<g id="node5" class="node">
<title>MainSystemComponent</title>
<polygon fill="#ffffb3" stroke="#000000" points="2107.1052,-122 1954.8948,-122 1954.8948,-86 2107.1052,-86 2107.1052,-122"/>
<text text-anchor="middle" x="2031" y="-99.8" font-family="Times,serif" font-size="14.00" fill="#000000">MainSystemComponent</text>
</g>
<!-- MainSystemComponent&#45;&gt;ManagementModule -->
<g id="edge5" class="edge">
<title>MainSystemComponent&#45;&gt;ManagementModule</title>
<path fill="none" stroke="#000000" d="M2031,-122.2222C2031,-140.8285 2031,-167 2031,-167 2031,-167 1446.4056,-167 1446.4056,-167"/>
<polygon fill="#000000" stroke="#000000" points="1446.4057,-163.5001 1436.4056,-167 1446.4056,-170.5001 1446.4057,-163.5001"/>
</g>
<!-- SystemBuilderComponent -->
<g id="node6" class="node">
<title>SystemBuilderComponent</title>
<polygon fill="#ffffb3" stroke="#000000" points="1937.049,-122 1772.951,-122 1772.951,-86 1937.049,-86 1937.049,-122"/>
<text text-anchor="middle" x="1855" y="-99.8" font-family="Times,serif" font-size="14.00" fill="#000000">SystemBuilderComponent</text>
</g>
<!-- SystemBuilderComponent&#45;&gt;ManagementModule -->
<g id="edge6" class="edge">
<title>SystemBuilderComponent&#45;&gt;ManagementModule</title>
<path fill="none" stroke="#000000" d="M1855,-122.0225C1855,-139.3734 1855,-163 1855,-163 1855,-163 1446.1669,-163 1446.1669,-163"/>
<polygon fill="#000000" stroke="#000000" points="1446.167,-159.5001 1436.1669,-163 1446.1669,-166.5001 1446.167,-159.5001"/>
</g>
<!-- SystemListComponent -->
<g id="node7" class="node">
<title>SystemListComponent</title>
<polygon fill="#ffffb3" stroke="#000000" points="1755.3342,-122 1610.6658,-122 1610.6658,-86 1755.3342,-86 1755.3342,-122"/>
<text text-anchor="middle" x="1683" y="-99.8" font-family="Times,serif" font-size="14.00" fill="#000000">SystemListComponent</text>
</g>
<!-- SystemListComponent&#45;&gt;ManagementModule -->
<g id="edge7" class="edge">
<title>SystemListComponent&#45;&gt;ManagementModule</title>
<path fill="none" stroke="#000000" d="M1683,-122.0091C1683,-138.0494 1683,-159 1683,-159 1683,-159 1446.3792,-159 1446.3792,-159"/>
<polygon fill="#000000" stroke="#000000" points="1446.3793,-155.5001 1436.3792,-159 1446.3792,-162.5001 1446.3793,-155.5001"/>
</g>
<!-- UsersComponent -->
<g id="node8" class="node">
<title>UsersComponent</title>
<polygon fill="#ffffb3" stroke="#000000" points="1592.7036,-122 1479.2964,-122 1479.2964,-86 1592.7036,-86 1592.7036,-122"/>
<text text-anchor="middle" x="1536" y="-99.8" font-family="Times,serif" font-size="14.00" fill="#000000">UsersComponent</text>
</g>
<!-- UsersComponent&#45;&gt;ManagementModule -->
<g id="edge8" class="edge">
<title>UsersComponent&#45;&gt;ManagementModule</title>
<path fill="none" stroke="#000000" d="M1536,-122.1243C1536,-136.7832 1536,-155 1536,-155 1536,-155 1446.5621,-155 1446.5621,-155"/>
<polygon fill="#000000" stroke="#000000" points="1446.5621,-151.5001 1436.5621,-155 1446.562,-158.5001 1446.5621,-151.5001"/>
</g>
<!-- ManagementRouterModule -->
<g id="node10" class="node">
<title>ManagementRouterModule</title>
<polygon fill="#8dd3c7" stroke="#000000" points="1455.2366,-122 1452.2366,-126 1431.2366,-126 1428.2366,-122 1284.7634,-122 1284.7634,-86 1455.2366,-86 1455.2366,-122"/>
<text text-anchor="middle" x="1370" y="-99.8" font-family="Times,serif" font-size="14.00" fill="#000000">ManagementRouterModule</text>
</g>
<!-- ManagementRouterModule&#45;&gt;ManagementModule -->
<g id="edge9" class="edge">
<title>ManagementRouterModule&#45;&gt;ManagementModule</title>
<path fill="none" stroke="#000000" d="M1370,-122.1061C1370,-122.1061 1370,-140.991 1370,-140.991"/>
<polygon fill="#000000" stroke="#000000" points="1366.5001,-140.9909 1370,-150.991 1373.5001,-140.991 1366.5001,-140.9909"/>
</g>
<!-- SharedModule -->
<g id="node11" class="node">
<title>SharedModule</title>
<polygon fill="#8dd3c7" stroke="#000000" points="1266.4231,-122 1263.4231,-126 1242.4231,-126 1239.4231,-122 1167.5769,-122 1167.5769,-86 1266.4231,-86 1266.4231,-122"/>
<text text-anchor="middle" x="1217" y="-99.8" font-family="Times,serif" font-size="14.00" fill="#000000">SharedModule</text>
</g>
<!-- SharedModule&#45;&gt;ManagementModule -->
<g id="edge10" class="edge">
<title>SharedModule&#45;&gt;ManagementModule</title>
<path fill="none" stroke="#000000" d="M1217,-122.1243C1217,-136.7832 1217,-155 1217,-155 1217,-155 1293.7818,-155 1293.7818,-155"/>
<polygon fill="#000000" stroke="#000000" points="1293.7819,-158.5001 1303.7818,-155 1293.7818,-151.5001 1293.7819,-158.5001"/>
</g>
<!-- SharedModulesModule -->
<g id="node12" class="node">
<title>SharedModulesModule</title>
<polygon fill="#8dd3c7" stroke="#000000" points="1149.9172,-122 1146.9172,-126 1125.9172,-126 1122.9172,-122 1002.0828,-122 1002.0828,-86 1149.9172,-86 1149.9172,-122"/>
<text text-anchor="middle" x="1076" y="-99.8" font-family="Times,serif" font-size="14.00" fill="#000000">SharedModulesModule</text>
</g>
<!-- SharedModulesModule&#45;&gt;ManagementModule -->
<g id="edge11" class="edge">
<title>SharedModulesModule&#45;&gt;ManagementModule</title>
<path fill="none" stroke="#000000" d="M1076,-122.0091C1076,-138.0494 1076,-159 1076,-159 1076,-159 1293.6541,-159 1293.6541,-159"/>
<polygon fill="#000000" stroke="#000000" points="1293.6541,-162.5001 1303.6541,-159 1293.654,-155.5001 1293.6541,-162.5001"/>
</g>
<!-- CategoryService -->
<g id="node13" class="node">
<title>CategoryService</title>
<ellipse fill="#fdb462" stroke="#000000" cx="903" cy="-104" rx="75.279" ry="18"/>
<text text-anchor="middle" x="903" y="-99.8" font-family="Times,serif" font-size="14.00" fill="#000000">CategoryService</text>
</g>
<!-- CategoryService&#45;&gt;ManagementModule -->
<g id="edge12" class="edge">
<title>CategoryService&#45;&gt;ManagementModule</title>
<path fill="none" stroke="#000000" d="M903,-122.0225C903,-139.3734 903,-163 903,-163 903,-163 1293.5862,-163 1293.5862,-163"/>
<polygon fill="#000000" stroke="#000000" points="1293.5863,-166.5001 1303.5862,-163 1293.5862,-159.5001 1293.5863,-166.5001"/>
</g>
<!-- ChartService -->
<g id="node14" class="node">
<title>ChartService</title>
<ellipse fill="#fdb462" stroke="#000000" cx="748" cy="-104" rx="61.3916" ry="18"/>
<text text-anchor="middle" x="748" y="-99.8" font-family="Times,serif" font-size="14.00" fill="#000000">ChartService</text>
</g>
<!-- ChartService&#45;&gt;ManagementModule -->
<g id="edge13" class="edge">
<title>ChartService&#45;&gt;ManagementModule</title>
<path fill="none" stroke="#000000" d="M748,-122.2222C748,-140.8285 748,-167 748,-167 748,-167 1293.7298,-167 1293.7298,-167"/>
<polygon fill="#000000" stroke="#000000" points="1293.7298,-170.5001 1303.7298,-167 1293.7298,-163.5001 1293.7298,-170.5001"/>
</g>
<!-- CvService -->
<g id="node15" class="node">
<title>CvService</title>
<ellipse fill="#fdb462" stroke="#000000" cx="617" cy="-104" rx="51.0223" ry="18"/>
<text text-anchor="middle" x="617" y="-99.8" font-family="Times,serif" font-size="14.00" fill="#000000">CvService</text>
</g>
<!-- CvService&#45;&gt;ManagementModule -->
<g id="edge14" class="edge">
<title>CvService&#45;&gt;ManagementModule</title>
<path fill="none" stroke="#000000" d="M617,-122.308C617,-142.1455 617,-171 617,-171 617,-171 1293.8362,-171 1293.8362,-171"/>
<polygon fill="#000000" stroke="#000000" points="1293.8363,-174.5001 1303.8362,-171 1293.8362,-167.5001 1293.8363,-174.5001"/>
</g>
<!-- DataSourceService -->
<g id="node16" class="node">
<title>DataSourceService</title>
<ellipse fill="#fdb462" stroke="#000000" cx="463" cy="-104" rx="85.0676" ry="18"/>
<text text-anchor="middle" x="463" y="-99.8" font-family="Times,serif" font-size="14.00" fill="#000000">DataSourceService</text>
</g>
<!-- DataSourceService&#45;&gt;ManagementModule -->
<g id="edge15" class="edge">
<title>DataSourceService&#45;&gt;ManagementModule</title>
<path fill="none" stroke="#000000" d="M463,-122.2843C463,-143.3211 463,-175 463,-175 463,-175 1293.6736,-175 1293.6736,-175"/>
<polygon fill="#000000" stroke="#000000" points="1293.6736,-178.5001 1303.6736,-175 1293.6736,-171.5001 1293.6736,-178.5001"/>
</g>
<!-- GuideSetService -->
<g id="node17" class="node">
<title>GuideSetService</title>
<ellipse fill="#fdb462" stroke="#000000" cx="284" cy="-104" rx="75.8586" ry="18"/>
<text text-anchor="middle" x="284" y="-99.8" font-family="Times,serif" font-size="14.00" fill="#000000">GuideSetService</text>
</g>
<!-- GuideSetService&#45;&gt;ManagementModule -->
<g id="edge16" class="edge">
<title>GuideSetService&#45;&gt;ManagementModule</title>
<path fill="none" stroke="#000000" d="M284,-122.1554C284,-144.3519 284,-179 284,-179 284,-179 1293.7006,-179 1293.7006,-179"/>
<polygon fill="#000000" stroke="#000000" points="1293.7007,-182.5001 1303.7006,-179 1293.7006,-175.5001 1293.7007,-182.5001"/>
</g>
<!-- ParametersService -->
<g id="node18" class="node">
<title>ParametersService</title>
<ellipse fill="#fdb462" stroke="#000000" cx="107" cy="-104" rx="82.7762" ry="18"/>
<text text-anchor="middle" x="107" y="-99.8" font-family="Times,serif" font-size="14.00" fill="#000000">ParametersService</text>
</g>
<!-- ParametersService&#45;&gt;ManagementModule -->
<g id="edge17" class="edge">
<title>ParametersService&#45;&gt;ManagementModule</title>
<path fill="none" stroke="#000000" d="M107,-122.3228C107,-145.6602 107,-183 107,-183 107,-183 1293.4313,-183 1293.4313,-183"/>
<polygon fill="#000000" stroke="#000000" points="1293.4313,-186.5001 1303.4313,-183 1293.4312,-179.5001 1293.4313,-186.5001"/>
</g>
</g>
</svg>
