<?xml version="1.0" encoding="UTF-8" standalone="no"?>
<!DOCTYPE svg PUBLIC "-//W3C//DTD SVG 1.1//EN"
 "http://www.w3.org/Graphics/SVG/1.1/DTD/svg11.dtd">
<!-- Generated by graphviz version 2.40.1 (20161225.0304)
 -->
<!-- Title: dependencies Pages: 1 -->
<svg width="2251pt" height="211pt"
 viewBox="0.00 0.00 2251.00 211.00" xmlns="http://www.w3.org/2000/svg" xmlns:xlink="http://www.w3.org/1999/xlink">
<g id="graph0" class="graph" transform="scale(1 1) rotate(0) translate(4 207)">
<title>dependencies</title>
<polygon fill="#ffffff" stroke="transparent" points="-4,4 -4,-207 2247,-207 2247,4 -4,4"/>
<text text-anchor="start" x="1100.5091" y="-42.4" font-family="sans-serif" font-weight="bold" font-size="14.00" fill="#000000">Legend</text>
<polygon fill="#ffffb3" stroke="transparent" points="887.5,-10 887.5,-30 907.5,-30 907.5,-10 887.5,-10"/>
<text text-anchor="start" x="911.129" y="-15.4" font-family="sans-serif" font-size="14.00" fill="#000000"> &#160;Declarations</text>
<polygon fill="#8dd3c7" stroke="transparent" points="1000.5,-10 1000.5,-30 1020.5,-30 1020.5,-10 1000.5,-10"/>
<text text-anchor="start" x="1024.2251" y="-15.4" font-family="sans-serif" font-size="14.00" fill="#000000"> &#160;Module</text>
<polygon fill="#80b1d3" stroke="transparent" points="1086.5,-10 1086.5,-30 1106.5,-30 1106.5,-10 1086.5,-10"/>
<text text-anchor="start" x="1110.2812" y="-15.4" font-family="sans-serif" font-size="14.00" fill="#000000"> &#160;Bootstrap</text>
<polygon fill="#fdb462" stroke="transparent" points="1183.5,-10 1183.5,-30 1203.5,-30 1203.5,-10 1183.5,-10"/>
<text text-anchor="start" x="1207.1732" y="-15.4" font-family="sans-serif" font-size="14.00" fill="#000000"> &#160;Providers</text>
<polygon fill="#fb8072" stroke="transparent" points="1279.5,-10 1279.5,-30 1299.5,-30 1299.5,-10 1279.5,-10"/>
<text text-anchor="start" x="1303.2258" y="-15.4" font-family="sans-serif" font-size="14.00" fill="#000000"> &#160;Exports</text>
<g id="clust1" class="cluster">
<title>cluster_ConfigurationModule</title>
<polygon fill="none" stroke="#000000" stroke-dasharray="1,5" points="8,-70 8,-195 2235,-195 2235,-70 8,-70"/>
</g>
<g id="clust2" class="cluster">
<title>cluster_ConfigurationModule_declarations</title>
<polygon fill="none" stroke="#000000" points="606,-78 606,-130 2227,-130 2227,-78 606,-78"/>
</g>
<g id="clust12" class="cluster">
<title>cluster_ConfigurationModule_imports</title>
<polygon fill="none" stroke="#000000" points="256,-78 256,-130 598,-130 598,-78 256,-78"/>
</g>
<g id="clust15" class="cluster">
<title>cluster_ConfigurationModule_providers</title>
<polygon fill="none" stroke="#000000" points="16,-78 16,-130 248,-130 248,-78 16,-78"/>
</g>
<!-- DefaultViewSelectorComponent -->
<g id="node1" class="node">
<title>DefaultViewSelectorComponent</title>
<polygon fill="#ffffb3" stroke="#000000" points="2218.9972,-122 2019.0028,-122 2019.0028,-86 2218.9972,-86 2218.9972,-122"/>
<text text-anchor="middle" x="2119" y="-99.8" font-family="Times,serif" font-size="14.00" fill="#000000">DefaultViewSelectorComponent</text>
</g>
<!-- ConfigurationModule -->
<g id="node10" class="node">
<title>ConfigurationModule</title>
<polygon fill="#8dd3c7" stroke="#000000" points="1209.094,-187 1206.094,-191 1185.094,-191 1182.094,-187 1070.906,-187 1070.906,-151 1209.094,-151 1209.094,-187"/>
<text text-anchor="middle" x="1140" y="-164.8" font-family="Times,serif" font-size="14.00" fill="#000000">ConfigurationModule</text>
</g>
<!-- DefaultViewSelectorComponent&#45;&gt;ConfigurationModule -->
<g id="edge1" class="edge">
<title>DefaultViewSelectorComponent&#45;&gt;ConfigurationModule</title>
<path fill="none" stroke="#000000" d="M2119,-122.0908C2119,-145.1328 2119,-182 2119,-182 2119,-182 1219.2314,-182 1219.2314,-182"/>
<polygon fill="#000000" stroke="#000000" points="1219.2315,-178.5001 1209.2314,-182 1219.2314,-185.5001 1219.2315,-178.5001"/>
</g>
<!-- MainComponent -->
<g id="node2" class="node">
<title>MainComponent</title>
<polygon fill="#ffffb3" stroke="#000000" points="2001.3823,-122 1890.6177,-122 1890.6177,-86 2001.3823,-86 2001.3823,-122"/>
<text text-anchor="middle" x="1946" y="-99.8" font-family="Times,serif" font-size="14.00" fill="#000000">MainComponent</text>
</g>
<!-- MainComponent&#45;&gt;ConfigurationModule -->
<g id="edge2" class="edge">
<title>MainComponent&#45;&gt;ConfigurationModule</title>
<path fill="none" stroke="#000000" d="M1946,-122.2843C1946,-143.3211 1946,-175 1946,-175 1946,-175 1219.0675,-175 1219.0675,-175"/>
<polygon fill="#000000" stroke="#000000" points="1219.0676,-171.5001 1209.0675,-175 1219.0675,-178.5001 1219.0676,-171.5001"/>
</g>
<!-- MainProfileComponent -->
<g id="node3" class="node">
<title>MainProfileComponent</title>
<polygon fill="#ffffb3" stroke="#000000" points="1872.4818,-122 1723.5182,-122 1723.5182,-86 1872.4818,-86 1872.4818,-122"/>
<text text-anchor="middle" x="1798" y="-99.8" font-family="Times,serif" font-size="14.00" fill="#000000">MainProfileComponent</text>
</g>
<!-- MainProfileComponent&#45;&gt;ConfigurationModule -->
<g id="edge3" class="edge">
<title>MainProfileComponent&#45;&gt;ConfigurationModule</title>
<path fill="none" stroke="#000000" d="M1798,-122.1061C1798,-141.3391 1798,-169 1798,-169 1798,-169 1219.1739,-169 1219.1739,-169"/>
<polygon fill="#000000" stroke="#000000" points="1219.1739,-165.5001 1209.1739,-169 1219.1738,-172.5001 1219.1739,-165.5001"/>
</g>
<!-- MainUserViewComponent -->
<g id="node4" class="node">
<title>MainUserViewComponent</title>
<polygon fill="#ffffb3" stroke="#000000" points="1705.6274,-122 1538.3726,-122 1538.3726,-86 1705.6274,-86 1705.6274,-122"/>
<text text-anchor="middle" x="1622" y="-99.8" font-family="Times,serif" font-size="14.00" fill="#000000">MainUserViewComponent</text>
</g>
<!-- MainUserViewComponent&#45;&gt;ConfigurationModule -->
<g id="edge4" class="edge">
<title>MainUserViewComponent&#45;&gt;ConfigurationModule</title>
<path fill="none" stroke="#000000" d="M1622,-122.0225C1622,-139.3734 1622,-163 1622,-163 1622,-163 1219.0588,-163 1219.0588,-163"/>
<polygon fill="#000000" stroke="#000000" points="1219.0589,-159.5001 1209.0588,-163 1219.0588,-166.5001 1219.0589,-159.5001"/>
</g>
<!-- PasswordChangeComponent -->
<g id="node5" class="node">
<title>PasswordChangeComponent</title>
<polygon fill="#ffffb3" stroke="#000000" points="1519.752,-122 1342.248,-122 1342.248,-86 1519.752,-86 1519.752,-122"/>
<text text-anchor="middle" x="1431" y="-99.8" font-family="Times,serif" font-size="14.00" fill="#000000">PasswordChangeComponent</text>
</g>
<!-- PasswordChangeComponent&#45;&gt;ConfigurationModule -->
<g id="edge5" class="edge">
<title>PasswordChangeComponent&#45;&gt;ConfigurationModule</title>
<path fill="none" stroke="#000000" d="M1431,-122.2396C1431,-137.5706 1431,-157 1431,-157 1431,-157 1219.332,-157 1219.332,-157"/>
<polygon fill="#000000" stroke="#000000" points="1219.3321,-153.5001 1209.332,-157 1219.332,-160.5001 1219.3321,-153.5001"/>
</g>
<!-- ProfileManagementComponent -->
<g id="node6" class="node">
<title>ProfileManagementComponent</title>
<polygon fill="#ffffb3" stroke="#000000" points="1324.0168,-122 1131.9832,-122 1131.9832,-86 1324.0168,-86 1324.0168,-122"/>
<text text-anchor="middle" x="1228" y="-99.8" font-family="Times,serif" font-size="14.00" fill="#000000">ProfileManagementComponent</text>
</g>
<!-- ProfileManagementComponent&#45;&gt;ConfigurationModule -->
<g id="edge6" class="edge">
<title>ProfileManagementComponent&#45;&gt;ConfigurationModule</title>
<path fill="none" stroke="#000000" d="M1170.3945,-122.1061C1170.3945,-122.1061 1170.3945,-140.991 1170.3945,-140.991"/>
<polygon fill="#000000" stroke="#000000" points="1166.8945,-140.9909 1170.3945,-150.991 1173.8945,-140.991 1166.8945,-140.9909"/>
</g>
<!-- SidebarComponent -->
<g id="node7" class="node">
<title>SidebarComponent</title>
<polygon fill="#ffffb3" stroke="#000000" points="1114.0954,-122 989.9046,-122 989.9046,-86 1114.0954,-86 1114.0954,-122"/>
<text text-anchor="middle" x="1052" y="-99.8" font-family="Times,serif" font-size="14.00" fill="#000000">SidebarComponent</text>
</g>
<!-- SidebarComponent&#45;&gt;ConfigurationModule -->
<g id="edge7" class="edge">
<title>SidebarComponent&#45;&gt;ConfigurationModule</title>
<path fill="none" stroke="#000000" d="M1092.5004,-122.1061C1092.5004,-122.1061 1092.5004,-140.991 1092.5004,-140.991"/>
<polygon fill="#000000" stroke="#000000" points="1089.0004,-140.9909 1092.5004,-150.991 1096.0004,-140.991 1089.0004,-140.9909"/>
</g>
<!-- UserViewBuilderComponent -->
<g id="node8" class="node">
<title>UserViewBuilderComponent</title>
<polygon fill="#ffffb3" stroke="#000000" points="972.0702,-122 791.9298,-122 791.9298,-86 972.0702,-86 972.0702,-122"/>
<text text-anchor="middle" x="882" y="-99.8" font-family="Times,serif" font-size="14.00" fill="#000000">UserViewBuilderComponent</text>
</g>
<!-- UserViewBuilderComponent&#45;&gt;ConfigurationModule -->
<g id="edge8" class="edge">
<title>UserViewBuilderComponent&#45;&gt;ConfigurationModule</title>
<path fill="none" stroke="#000000" d="M882,-122.2396C882,-137.5706 882,-157 882,-157 882,-157 1060.8607,-157 1060.8607,-157"/>
<polygon fill="#000000" stroke="#000000" points="1060.8608,-160.5001 1070.8607,-157 1060.8607,-153.5001 1060.8608,-160.5001"/>
</g>
<!-- UserViewListComponent -->
<g id="node9" class="node">
<title>UserViewListComponent</title>
<polygon fill="#ffffb3" stroke="#000000" points="773.8557,-122 614.1443,-122 614.1443,-86 773.8557,-86 773.8557,-122"/>
<text text-anchor="middle" x="694" y="-99.8" font-family="Times,serif" font-size="14.00" fill="#000000">UserViewListComponent</text>
</g>
<!-- UserViewListComponent&#45;&gt;ConfigurationModule -->
<g id="edge9" class="edge">
<title>UserViewListComponent&#45;&gt;ConfigurationModule</title>
<path fill="none" stroke="#000000" d="M694,-122.0225C694,-139.3734 694,-163 694,-163 694,-163 1060.8019,-163 1060.8019,-163"/>
<polygon fill="#000000" stroke="#000000" points="1060.8019,-166.5001 1070.8019,-163 1060.8018,-159.5001 1060.8019,-166.5001"/>
</g>
<!-- ConfigurationRouterModule -->
<g id="node11" class="node">
<title>ConfigurationRouterModule</title>
<polygon fill="#8dd3c7" stroke="#000000" points="590.1965,-122 587.1965,-126 566.1965,-126 563.1965,-122 413.8035,-122 413.8035,-86 590.1965,-86 590.1965,-122"/>
<text text-anchor="middle" x="502" y="-99.8" font-family="Times,serif" font-size="14.00" fill="#000000">ConfigurationRouterModule</text>
</g>
<!-- ConfigurationRouterModule&#45;&gt;ConfigurationModule -->
<g id="edge10" class="edge">
<title>ConfigurationRouterModule&#45;&gt;ConfigurationModule</title>
<path fill="none" stroke="#000000" d="M502,-122.1061C502,-141.3391 502,-169 502,-169 502,-169 1060.8127,-169 1060.8127,-169"/>
<polygon fill="#000000" stroke="#000000" points="1060.8128,-172.5001 1070.8127,-169 1060.8127,-165.5001 1060.8128,-172.5001"/>
</g>
<!-- ViewBuilderModule -->
<g id="node12" class="node">
<title>ViewBuilderModule</title>
<polygon fill="#8dd3c7" stroke="#000000" points="395.8613,-122 392.8613,-126 371.8613,-126 368.8613,-122 264.1387,-122 264.1387,-86 395.8613,-86 395.8613,-122"/>
<text text-anchor="middle" x="330" y="-99.8" font-family="Times,serif" font-size="14.00" fill="#000000">ViewBuilderModule</text>
</g>
<!-- ViewBuilderModule&#45;&gt;ConfigurationModule -->
<g id="edge11" class="edge">
<title>ViewBuilderModule&#45;&gt;ConfigurationModule</title>
<path fill="none" stroke="#000000" d="M330,-122.2843C330,-143.3211 330,-175 330,-175 330,-175 1060.9399,-175 1060.9399,-175"/>
<polygon fill="#000000" stroke="#000000" points="1060.9399,-178.5001 1070.9399,-175 1060.9398,-171.5001 1060.9399,-178.5001"/>
</g>
<!-- UserDefaultViewService -->
<g id="node13" class="node">
<title>UserDefaultViewService</title>
<ellipse fill="#fdb462" stroke="#000000" cx="132" cy="-104" rx="108.1777" ry="18"/>
<text text-anchor="middle" x="132" y="-99.8" font-family="Times,serif" font-size="14.00" fill="#000000">UserDefaultViewService</text>
</g>
<!-- UserDefaultViewService&#45;&gt;ConfigurationModule -->
<g id="edge12" class="edge">
<title>UserDefaultViewService&#45;&gt;ConfigurationModule</title>
<path fill="none" stroke="#000000" d="M132,-122.0908C132,-145.1328 132,-182 132,-182 132,-182 1060.7161,-182 1060.7161,-182"/>
<polygon fill="#000000" stroke="#000000" points="1060.7161,-185.5001 1070.7161,-182 1060.716,-178.5001 1060.7161,-185.5001"/>
</g>
</g>
</svg>
