<?xml version="1.0" encoding="UTF-8" standalone="no"?>
<!DOCTYPE svg PUBLIC "-//W3C//DTD SVG 1.1//EN"
 "http://www.w3.org/Graphics/SVG/1.1/DTD/svg11.dtd">
<!-- Generated by graphviz version 2.40.1 (20161225.0304)
 -->
<!-- Title: dependencies Pages: 1 -->
<svg width="1441pt" height="211pt"
 viewBox="0.00 0.00 1441.00 211.00" xmlns="http://www.w3.org/2000/svg" xmlns:xlink="http://www.w3.org/1999/xlink">
<g id="graph0" class="graph" transform="scale(1 1) rotate(0) translate(4 207)">
<title>dependencies</title>
<polygon fill="#ffffff" stroke="transparent" points="-4,4 -4,-207 1437,-207 1437,4 -4,4"/>
<text text-anchor="start" x="695.5091" y="-42.4" font-family="sans-serif" font-weight="bold" font-size="14.00" fill="#000000">Legend</text>
<polygon fill="#ffffb3" stroke="transparent" points="482.5,-10 482.5,-30 502.5,-30 502.5,-10 482.5,-10"/>
<text text-anchor="start" x="506.129" y="-15.4" font-family="sans-serif" font-size="14.00" fill="#000000"> &#160;Declarations</text>
<polygon fill="#8dd3c7" stroke="transparent" points="595.5,-10 595.5,-30 615.5,-30 615.5,-10 595.5,-10"/>
<text text-anchor="start" x="619.2251" y="-15.4" font-family="sans-serif" font-size="14.00" fill="#000000"> &#160;Module</text>
<polygon fill="#80b1d3" stroke="transparent" points="681.5,-10 681.5,-30 701.5,-30 701.5,-10 681.5,-10"/>
<text text-anchor="start" x="705.2812" y="-15.4" font-family="sans-serif" font-size="14.00" fill="#000000"> &#160;Bootstrap</text>
<polygon fill="#fdb462" stroke="transparent" points="778.5,-10 778.5,-30 798.5,-30 798.5,-10 778.5,-10"/>
<text text-anchor="start" x="802.1732" y="-15.4" font-family="sans-serif" font-size="14.00" fill="#000000"> &#160;Providers</text>
<polygon fill="#fb8072" stroke="transparent" points="874.5,-10 874.5,-30 894.5,-30 894.5,-10 874.5,-10"/>
<text text-anchor="start" x="898.2258" y="-15.4" font-family="sans-serif" font-size="14.00" fill="#000000"> &#160;Exports</text>
<g id="clust1" class="cluster">
<title>cluster_HelpModule</title>
<polygon fill="none" stroke="#000000" stroke-dasharray="1,5" points="8,-70 8,-195 1425,-195 1425,-70 8,-70"/>
</g>
<g id="clust3" class="cluster">
<title>cluster_HelpModule_imports</title>
<polygon fill="none" stroke="#000000" points="994,-78 994,-130 1417,-130 1417,-78 994,-78"/>
</g>
<g id="clust6" class="cluster">
<title>cluster_HelpModule_providers</title>
<polygon fill="none" stroke="#000000" points="16,-78 16,-130 986,-130 986,-78 16,-78"/>
</g>
<!-- HelpRouterModule -->
<g id="node1" class="node">
<title>HelpRouterModule</title>
<polygon fill="#8dd3c7" stroke="#000000" points="1409.3641,-122 1406.3641,-126 1385.3641,-126 1382.3641,-122 1284.6359,-122 1284.6359,-86 1409.3641,-86 1409.3641,-122"/>
<text text-anchor="middle" x="1347" y="-99.8" font-family="Times,serif" font-size="14.00" fill="#000000">HelpRouterModule</text>
</g>
<!-- HelpModule -->
<g id="node4" class="node">
<title>HelpModule</title>
<polygon fill="#8dd3c7" stroke="#000000" points="791.2619,-187 788.2619,-191 767.2619,-191 764.2619,-187 704.7381,-187 704.7381,-151 791.2619,-151 791.2619,-187"/>
<text text-anchor="middle" x="748" y="-164.8" font-family="Times,serif" font-size="14.00" fill="#000000">HelpModule</text>
</g>
<!-- HelpRouterModule&#45;&gt;HelpModule -->
<g id="edge1" class="edge">
<title>HelpRouterModule&#45;&gt;HelpModule</title>
<path fill="none" stroke="#000000" d="M1347,-122.0109C1347,-144.4852 1347,-180 1347,-180 1347,-180 801.5611,-180 801.5611,-180"/>
<polygon fill="#000000" stroke="#000000" points="801.5611,-176.5001 791.5611,-180 801.5611,-183.5001 801.5611,-176.5001"/>
</g>
<!-- SharedModule -->
<g id="node2" class="node">
<title>SharedModule</title>
<polygon fill="#8dd3c7" stroke="#000000" points="1266.4231,-122 1263.4231,-126 1242.4231,-126 1239.4231,-122 1167.5769,-122 1167.5769,-86 1266.4231,-86 1266.4231,-122"/>
<text text-anchor="middle" x="1217" y="-99.8" font-family="Times,serif" font-size="14.00" fill="#000000">SharedModule</text>
</g>
<!-- SharedModule&#45;&gt;HelpModule -->
<g id="edge2" class="edge">
<title>SharedModule&#45;&gt;HelpModule</title>
<path fill="none" stroke="#000000" d="M1217,-122.1289C1217,-142.5724 1217,-173 1217,-173 1217,-173 801.2817,-173 801.2817,-173"/>
<polygon fill="#000000" stroke="#000000" points="801.2818,-169.5001 791.2817,-173 801.2817,-176.5001 801.2818,-169.5001"/>
</g>
<!-- SharedModulesModule -->
<g id="node3" class="node">
<title>SharedModulesModule</title>
<polygon fill="#8dd3c7" stroke="#000000" points="1149.9172,-122 1146.9172,-126 1125.9172,-126 1122.9172,-122 1002.0828,-122 1002.0828,-86 1149.9172,-86 1149.9172,-122"/>
<text text-anchor="middle" x="1076" y="-99.8" font-family="Times,serif" font-size="14.00" fill="#000000">SharedModulesModule</text>
</g>
<!-- SharedModulesModule&#45;&gt;HelpModule -->
<g id="edge3" class="edge">
<title>SharedModulesModule&#45;&gt;HelpModule</title>
<path fill="none" stroke="#000000" d="M1076,-122.2667C1076,-140.5552 1076,-166 1076,-166 1076,-166 801.5559,-166 801.5559,-166"/>
<polygon fill="#000000" stroke="#000000" points="801.5559,-162.5001 791.5559,-166 801.5558,-169.5001 801.5559,-162.5001"/>
</g>
<!-- CategoryService -->
<g id="node5" class="node">
<title>CategoryService</title>
<ellipse fill="#fdb462" stroke="#000000" cx="903" cy="-104" rx="75.279" ry="18"/>
<text text-anchor="middle" x="903" y="-99.8" font-family="Times,serif" font-size="14.00" fill="#000000">CategoryService</text>
</g>
<!-- CategoryService&#45;&gt;HelpModule -->
<g id="edge4" class="edge">
<title>CategoryService&#45;&gt;HelpModule</title>
<path fill="none" stroke="#000000" d="M903,-122.0091C903,-138.0494 903,-159 903,-159 903,-159 801.5886,-159 801.5886,-159"/>
<polygon fill="#000000" stroke="#000000" points="801.5887,-155.5001 791.5886,-159 801.5886,-162.5001 801.5887,-155.5001"/>
</g>
<!-- ChartService -->
<g id="node6" class="node">
<title>ChartService</title>
<ellipse fill="#fdb462" stroke="#000000" cx="748" cy="-104" rx="61.3916" ry="18"/>
<text text-anchor="middle" x="748" y="-99.8" font-family="Times,serif" font-size="14.00" fill="#000000">ChartService</text>
</g>
<!-- ChartService&#45;&gt;HelpModule -->
<g id="edge5" class="edge">
<title>ChartService&#45;&gt;HelpModule</title>
<path fill="none" stroke="#000000" d="M748,-122.1061C748,-122.1061 748,-140.991 748,-140.991"/>
<polygon fill="#000000" stroke="#000000" points="744.5001,-140.9909 748,-150.991 751.5001,-140.991 744.5001,-140.9909"/>
</g>
<!-- CvService -->
<g id="node7" class="node">
<title>CvService</title>
<ellipse fill="#fdb462" stroke="#000000" cx="617" cy="-104" rx="51.0223" ry="18"/>
<text text-anchor="middle" x="617" y="-99.8" font-family="Times,serif" font-size="14.00" fill="#000000">CvService</text>
</g>
<!-- CvService&#45;&gt;HelpModule -->
<g id="edge6" class="edge">
<title>CvService&#45;&gt;HelpModule</title>
<path fill="none" stroke="#000000" d="M617,-122.0091C617,-138.0494 617,-159 617,-159 617,-159 694.3789,-159 694.3789,-159"/>
<polygon fill="#000000" stroke="#000000" points="694.3789,-162.5001 704.3789,-159 694.3789,-155.5001 694.3789,-162.5001"/>
</g>
<!-- DataSourceService -->
<g id="node8" class="node">
<title>DataSourceService</title>
<ellipse fill="#fdb462" stroke="#000000" cx="463" cy="-104" rx="85.0676" ry="18"/>
<text text-anchor="middle" x="463" y="-99.8" font-family="Times,serif" font-size="14.00" fill="#000000">DataSourceService</text>
</g>
<!-- DataSourceService&#45;&gt;HelpModule -->
<g id="edge7" class="edge">
<title>DataSourceService&#45;&gt;HelpModule</title>
<path fill="none" stroke="#000000" d="M463,-122.2667C463,-140.5552 463,-166 463,-166 463,-166 694.7146,-166 694.7146,-166"/>
<polygon fill="#000000" stroke="#000000" points="694.7147,-169.5001 704.7146,-166 694.7146,-162.5001 694.7147,-169.5001"/>
</g>
<!-- GuideSetService -->
<g id="node9" class="node">
<title>GuideSetService</title>
<ellipse fill="#fdb462" stroke="#000000" cx="284" cy="-104" rx="75.8586" ry="18"/>
<text text-anchor="middle" x="284" y="-99.8" font-family="Times,serif" font-size="14.00" fill="#000000">GuideSetService</text>
</g>
<!-- GuideSetService&#45;&gt;HelpModule -->
<g id="edge8" class="edge">
<title>GuideSetService&#45;&gt;HelpModule</title>
<path fill="none" stroke="#000000" d="M284,-122.1289C284,-142.5724 284,-173 284,-173 284,-173 694.348,-173 694.348,-173"/>
<polygon fill="#000000" stroke="#000000" points="694.348,-176.5001 704.348,-173 694.348,-169.5001 694.348,-176.5001"/>
</g>
<!-- ParametersService -->
<g id="node10" class="node">
<title>ParametersService</title>
<ellipse fill="#fdb462" stroke="#000000" cx="107" cy="-104" rx="82.7762" ry="18"/>
<text text-anchor="middle" x="107" y="-99.8" font-family="Times,serif" font-size="14.00" fill="#000000">ParametersService</text>
</g>
<!-- ParametersService&#45;&gt;HelpModule -->
<g id="edge9" class="edge">
<title>ParametersService&#45;&gt;HelpModule</title>
<path fill="none" stroke="#000000" d="M107,-122.0109C107,-144.4852 107,-180 107,-180 107,-180 694.6964,-180 694.6964,-180"/>
<polygon fill="#000000" stroke="#000000" points="694.6965,-183.5001 704.6964,-180 694.6964,-176.5001 694.6965,-183.5001"/>
</g>
</g>
</svg>
