<?xml version="1.0" encoding="UTF-8" standalone="no"?>
<!DOCTYPE svg PUBLIC "-//W3C//DTD SVG 1.1//EN"
 "http://www.w3.org/Graphics/SVG/1.1/DTD/svg11.dtd">
<!-- Generated by graphviz version 2.40.1 (20161225.0304)
 -->
<!-- Title: dependencies Pages: 1 -->
<svg width="2057pt" height="284pt"
 viewBox="0.00 0.00 2057.00 284.00" xmlns="http://www.w3.org/2000/svg" xmlns:xlink="http://www.w3.org/1999/xlink">
<g id="graph0" class="graph" transform="scale(1 1) rotate(0) translate(4 280)">
<title>dependencies</title>
<polygon fill="#ffffff" stroke="transparent" points="-4,4 -4,-280 2053,-280 2053,4 -4,4"/>
<text text-anchor="start" x="1003.5091" y="-42.4" font-family="sans-serif" font-weight="bold" font-size="14.00" fill="#000000">Legend</text>
<polygon fill="#ffffb3" stroke="transparent" points="790.5,-10 790.5,-30 810.5,-30 810.5,-10 790.5,-10"/>
<text text-anchor="start" x="814.129" y="-15.4" font-family="sans-serif" font-size="14.00" fill="#000000"> &#160;Declarations</text>
<polygon fill="#8dd3c7" stroke="transparent" points="903.5,-10 903.5,-30 923.5,-30 923.5,-10 903.5,-10"/>
<text text-anchor="start" x="927.2251" y="-15.4" font-family="sans-serif" font-size="14.00" fill="#000000"> &#160;Module</text>
<polygon fill="#80b1d3" stroke="transparent" points="989.5,-10 989.5,-30 1009.5,-30 1009.5,-10 989.5,-10"/>
<text text-anchor="start" x="1013.2812" y="-15.4" font-family="sans-serif" font-size="14.00" fill="#000000"> &#160;Bootstrap</text>
<polygon fill="#fdb462" stroke="transparent" points="1086.5,-10 1086.5,-30 1106.5,-30 1106.5,-10 1086.5,-10"/>
<text text-anchor="start" x="1110.1732" y="-15.4" font-family="sans-serif" font-size="14.00" fill="#000000"> &#160;Providers</text>
<polygon fill="#fb8072" stroke="transparent" points="1182.5,-10 1182.5,-30 1202.5,-30 1202.5,-10 1182.5,-10"/>
<text text-anchor="start" x="1206.2258" y="-15.4" font-family="sans-serif" font-size="14.00" fill="#000000"> &#160;Exports</text>
<g id="clust1" class="cluster">
<title>cluster_AppModule</title>
<polygon fill="none" stroke="#000000" stroke-dasharray="1,5" points="8,-70 8,-268 2041,-268 2041,-70 8,-70"/>
</g>
<g id="clust2" class="cluster">
<title>cluster_AppModule_declarations</title>
<polygon fill="none" stroke="#000000" points="1911,-78 1911,-130 2033,-130 2033,-78 1911,-78"/>
</g>
<g id="clust4" class="cluster">
<title>cluster_AppModule_imports</title>
<polygon fill="none" stroke="#000000" points="1487,-78 1487,-130 1903,-130 1903,-78 1487,-78"/>
</g>
<g id="clust6" class="cluster">
<title>cluster_AppModule_bootstrap</title>
<polygon fill="none" stroke="#000000" points="1043,-208 1043,-260 1167,-260 1167,-208 1043,-208"/>
</g>
<g id="clust7" class="cluster">
<title>cluster_AppModule_providers</title>
<polygon fill="none" stroke="#000000" points="16,-78 16,-130 1479,-130 1479,-78 16,-78"/>
</g>
<!-- AppComponent -->
<g id="node1" class="node">
<title>AppComponent</title>
<polygon fill="#ffffb3" stroke="#000000" points="2024.9399,-122 1919.0601,-122 1919.0601,-86 2024.9399,-86 2024.9399,-122"/>
<text text-anchor="middle" x="1972" y="-99.8" font-family="Times,serif" font-size="14.00" fill="#000000">AppComponent</text>
</g>
<!-- AppModule -->
<g id="node2" class="node">
<title>AppModule</title>
<polygon fill="#8dd3c7" stroke="#000000" points="1146.6571,-187 1143.6571,-191 1122.6571,-191 1119.6571,-187 1063.3429,-187 1063.3429,-151 1146.6571,-151 1146.6571,-187"/>
<text text-anchor="middle" x="1105" y="-164.8" font-family="Times,serif" font-size="14.00" fill="#000000">AppModule</text>
</g>
<!-- AppComponent&#45;&gt;AppModule -->
<g id="edge1" class="edge">
<title>AppComponent&#45;&gt;AppModule</title>
<path fill="none" stroke="#000000" d="M1972,-122.0908C1972,-145.1328 1972,-182 1972,-182 1972,-182 1156.8172,-182 1156.8172,-182"/>
<polygon fill="#000000" stroke="#000000" points="1156.8172,-178.5001 1146.8172,-182 1156.8172,-185.5001 1156.8172,-178.5001"/>
</g>
<!-- AppComponent  -->
<g id="node6" class="node">
<title>AppComponent </title>
<polygon fill="#80b1d3" stroke="#000000" points="1159.439,-252 1050.561,-252 1050.561,-216 1159.439,-216 1159.439,-252"/>
<text text-anchor="middle" x="1105" y="-229.8" font-family="Times,serif" font-size="14.00" fill="#000000">AppComponent </text>
</g>
<!-- AppModule&#45;&gt;AppComponent  -->
<g id="edge5" class="edge">
<title>AppModule&#45;&gt;AppComponent </title>
<path fill="none" stroke="#000000" stroke-dasharray="1,5" d="M1105,-187.1061C1105,-187.1061 1105,-205.991 1105,-205.991"/>
<polygon fill="#000000" stroke="#000000" points="1101.5001,-205.9909 1105,-215.991 1108.5001,-205.991 1101.5001,-205.9909"/>
</g>
<!-- EntryPointModule -->
<g id="node3" class="node">
<title>EntryPointModule</title>
<polygon fill="#8dd3c7" stroke="#000000" points="1895.2176,-122 1892.2176,-126 1871.2176,-126 1868.2176,-122 1774.7824,-122 1774.7824,-86 1895.2176,-86 1895.2176,-122"/>
<text text-anchor="middle" x="1835" y="-99.8" font-family="Times,serif" font-size="14.00" fill="#000000">EntryPointModule</text>
</g>
<!-- EntryPointModule&#45;&gt;AppModule -->
<g id="edge2" class="edge">
<title>EntryPointModule&#45;&gt;AppModule</title>
<path fill="none" stroke="#000000" d="M1835,-122.0449C1835,-143.6623 1835,-177 1835,-177 1835,-177 1156.8699,-177 1156.8699,-177"/>
<polygon fill="#000000" stroke="#000000" points="1156.8699,-173.5001 1146.8699,-177 1156.8699,-180.5001 1156.8699,-173.5001"/>
</g>
<!-- ModalModuleModule -->
<g id="node4" class="node">
<title>ModalModuleModule</title>
<polygon fill="#8dd3c7" stroke="#000000" points="1756.6498,-122 1753.6498,-126 1732.6498,-126 1729.6498,-122 1617.3502,-122 1617.3502,-86 1756.6498,-86 1756.6498,-122"/>
<text text-anchor="middle" x="1687" y="-99.8" font-family="Times,serif" font-size="14.00" fill="#000000">ModalModuleModule</text>
</g>
<!-- ModalModuleModule&#45;&gt;AppModule -->
<g id="edge3" class="edge">
<title>ModalModuleModule&#45;&gt;AppModule</title>
<path fill="none" stroke="#000000" d="M1687,-122.2228C1687,-142.3652 1687,-172 1687,-172 1687,-172 1156.856,-172 1156.856,-172"/>
<polygon fill="#000000" stroke="#000000" points="1156.856,-168.5001 1146.856,-172 1156.856,-175.5001 1156.856,-168.5001"/>
</g>
<!-- RoutingModule -->
<g id="node5" class="node">
<title>RoutingModule</title>
<polygon fill="#8dd3c7" stroke="#000000" points="1599.1681,-122 1596.1681,-126 1575.1681,-126 1572.1681,-122 1494.8319,-122 1494.8319,-86 1599.1681,-86 1599.1681,-122"/>
<text text-anchor="middle" x="1547" y="-99.8" font-family="Times,serif" font-size="14.00" fill="#000000">RoutingModule</text>
</g>
<!-- RoutingModule&#45;&gt;AppModule -->
<g id="edge4" class="edge">
<title>RoutingModule&#45;&gt;AppModule</title>
<path fill="none" stroke="#000000" d="M1547,-122.2222C1547,-140.8285 1547,-167 1547,-167 1547,-167 1156.9808,-167 1156.9808,-167"/>
<polygon fill="#000000" stroke="#000000" points="1156.9808,-163.5001 1146.9808,-167 1156.9807,-170.5001 1156.9808,-163.5001"/>
</g>
<!-- AuthInterceptor -->
<g id="node7" class="node">
<title>AuthInterceptor</title>
<ellipse fill="#fdb462" stroke="#000000" cx="1398" cy="-104" rx="72.9121" ry="18"/>
<text text-anchor="middle" x="1398" y="-99.8" font-family="Times,serif" font-size="14.00" fill="#000000">AuthInterceptor</text>
</g>
<!-- AuthInterceptor&#45;&gt;AppModule -->
<g id="edge6" class="edge">
<title>AuthInterceptor&#45;&gt;AppModule</title>
<path fill="none" stroke="#000000" d="M1398,-122.0336C1398,-139.0597 1398,-162 1398,-162 1398,-162 1156.6686,-162 1156.6686,-162"/>
<polygon fill="#000000" stroke="#000000" points="1156.6686,-158.5001 1146.6686,-162 1156.6686,-165.5001 1156.6686,-158.5001"/>
</g>
<!-- AuthService -->
<g id="node8" class="node">
<title>AuthService</title>
<ellipse fill="#fdb462" stroke="#000000" cx="1248" cy="-104" rx="59.1083" ry="18"/>
<text text-anchor="middle" x="1248" y="-99.8" font-family="Times,serif" font-size="14.00" fill="#000000">AuthService</text>
</g>
<!-- AuthService&#45;&gt;AppModule -->
<g id="edge7" class="edge">
<title>AuthService&#45;&gt;AppModule</title>
<path fill="none" stroke="#000000" d="M1248,-122.2396C1248,-137.5706 1248,-157 1248,-157 1248,-157 1156.7459,-157 1156.7459,-157"/>
<polygon fill="#000000" stroke="#000000" points="1156.746,-153.5001 1146.7459,-157 1156.7459,-160.5001 1156.746,-153.5001"/>
</g>
<!-- ModalService -->
<g id="node9" class="node">
<title>ModalService</title>
<ellipse fill="#fdb462" stroke="#000000" cx="1105" cy="-104" rx="65.4072" ry="18"/>
<text text-anchor="middle" x="1105" y="-99.8" font-family="Times,serif" font-size="14.00" fill="#000000">ModalService</text>
</g>
<!-- ModalService&#45;&gt;AppModule -->
<g id="edge8" class="edge">
<title>ModalService&#45;&gt;AppModule</title>
<path fill="none" stroke="#000000" d="M1105,-122.1061C1105,-122.1061 1105,-140.991 1105,-140.991"/>
<polygon fill="#000000" stroke="#000000" points="1101.5001,-140.9909 1105,-150.991 1108.5001,-140.991 1101.5001,-140.9909"/>
</g>
<!-- SystemService -->
<g id="node10" class="node">
<title>SystemService</title>
<ellipse fill="#fdb462" stroke="#000000" cx="953" cy="-104" rx="68.3536" ry="18"/>
<text text-anchor="middle" x="953" y="-99.8" font-family="Times,serif" font-size="14.00" fill="#000000">SystemService</text>
</g>
<!-- SystemService&#45;&gt;AppModule -->
<g id="edge9" class="edge">
<title>SystemService&#45;&gt;AppModule</title>
<path fill="none" stroke="#000000" d="M953,-122.2396C953,-137.5706 953,-157 953,-157 953,-157 1053.063,-157 1053.063,-157"/>
<polygon fill="#000000" stroke="#000000" points="1053.063,-160.5001 1063.063,-157 1053.0629,-153.5001 1053.063,-160.5001"/>
</g>
<!-- ThresholdService -->
<g id="node11" class="node">
<title>ThresholdService</title>
<ellipse fill="#fdb462" stroke="#000000" cx="787" cy="-104" rx="79.2922" ry="18"/>
<text text-anchor="middle" x="787" y="-99.8" font-family="Times,serif" font-size="14.00" fill="#000000">ThresholdService</text>
</g>
<!-- ThresholdService&#45;&gt;AppModule -->
<g id="edge10" class="edge">
<title>ThresholdService&#45;&gt;AppModule</title>
<path fill="none" stroke="#000000" d="M787,-122.0336C787,-139.0597 787,-162 787,-162 787,-162 1053.1001,-162 1053.1001,-162"/>
<polygon fill="#000000" stroke="#000000" points="1053.1001,-165.5001 1063.1001,-162 1053.1,-158.5001 1053.1001,-165.5001"/>
</g>
<!-- TroubleshootingService -->
<g id="node12" class="node">
<title>TroubleshootingService</title>
<ellipse fill="#fdb462" stroke="#000000" cx="586" cy="-104" rx="103.6547" ry="18"/>
<text text-anchor="middle" x="586" y="-99.8" font-family="Times,serif" font-size="14.00" fill="#000000">TroubleshootingService</text>
</g>
<!-- TroubleshootingService&#45;&gt;AppModule -->
<g id="edge11" class="edge">
<title>TroubleshootingService&#45;&gt;AppModule</title>
<path fill="none" stroke="#000000" d="M586,-122.2222C586,-140.8285 586,-167 586,-167 586,-167 1052.9677,-167 1052.9677,-167"/>
<polygon fill="#000000" stroke="#000000" points="1052.9677,-170.5001 1062.9677,-167 1052.9676,-163.5001 1052.9677,-170.5001"/>
</g>
<!-- UserService -->
<g id="node13" class="node">
<title>UserService</title>
<ellipse fill="#fdb462" stroke="#000000" cx="406" cy="-104" rx="58.4415" ry="18"/>
<text text-anchor="middle" x="406" y="-99.8" font-family="Times,serif" font-size="14.00" fill="#000000">UserService</text>
</g>
<!-- UserService&#45;&gt;AppModule -->
<g id="edge12" class="edge">
<title>UserService&#45;&gt;AppModule</title>
<path fill="none" stroke="#000000" d="M406,-122.2228C406,-142.3652 406,-172 406,-172 406,-172 1053.1085,-172 1053.1085,-172"/>
<polygon fill="#000000" stroke="#000000" points="1053.1085,-175.5001 1063.1085,-172 1053.1084,-168.5001 1053.1085,-175.5001"/>
</g>
<!-- ViewService -->
<g id="node14" class="node">
<title>ViewService</title>
<ellipse fill="#fdb462" stroke="#000000" cx="269" cy="-104" rx="60.8101" ry="18"/>
<text text-anchor="middle" x="269" y="-99.8" font-family="Times,serif" font-size="14.00" fill="#000000">ViewService</text>
</g>
<!-- ViewService&#45;&gt;AppModule -->
<g id="edge13" class="edge">
<title>ViewService&#45;&gt;AppModule</title>
<path fill="none" stroke="#000000" d="M269,-122.0449C269,-143.6623 269,-177 269,-177 269,-177 1053.2566,-177 1053.2566,-177"/>
<polygon fill="#000000" stroke="#000000" points="1053.2566,-180.5001 1063.2566,-177 1053.2566,-173.5001 1053.2566,-180.5001"/>
</g>
<!-- WebsocketService -->
<g id="node15" class="node">
<title>WebsocketService</title>
<ellipse fill="#fdb462" stroke="#000000" cx="107" cy="-104" rx="82.7839" ry="18"/>
<text text-anchor="middle" x="107" y="-99.8" font-family="Times,serif" font-size="14.00" fill="#000000">WebsocketService</text>
</g>
<!-- WebsocketService&#45;&gt;AppModule -->
<g id="edge14" class="edge">
<title>WebsocketService&#45;&gt;AppModule</title>
<path fill="none" stroke="#000000" d="M107,-122.0908C107,-145.1328 107,-182 107,-182 107,-182 1053.0717,-182 1053.0717,-182"/>
<polygon fill="#000000" stroke="#000000" points="1053.0718,-185.5001 1063.0717,-182 1053.0717,-178.5001 1053.0718,-185.5001"/>
</g>
</g>
</svg>
