<?xml version="1.0" encoding="UTF-8" standalone="no"?>
<!DOCTYPE svg PUBLIC "-//W3C//DTD SVG 1.1//EN"
 "http://www.w3.org/Graphics/SVG/1.1/DTD/svg11.dtd">
<!-- Generated by graphviz version 2.40.1 (20161225.0304)
 -->
<!-- Title: dependencies Pages: 1 -->
<svg width="1456pt" height="211pt"
 viewBox="0.00 0.00 1456.00 211.00" xmlns="http://www.w3.org/2000/svg" xmlns:xlink="http://www.w3.org/1999/xlink">
<g id="graph0" class="graph" transform="scale(1 1) rotate(0) translate(4 207)">
<title>dependencies</title>
<polygon fill="#ffffff" stroke="transparent" points="-4,4 -4,-207 1452,-207 1452,4 -4,4"/>
<text text-anchor="start" x="703.0091" y="-42.4" font-family="sans-serif" font-weight="bold" font-size="14.00" fill="#000000">Legend</text>
<polygon fill="#ffffb3" stroke="transparent" points="490,-10 490,-30 510,-30 510,-10 490,-10"/>
<text text-anchor="start" x="513.629" y="-15.4" font-family="sans-serif" font-size="14.00" fill="#000000"> &#160;Declarations</text>
<polygon fill="#8dd3c7" stroke="transparent" points="603,-10 603,-30 623,-30 623,-10 603,-10"/>
<text text-anchor="start" x="626.7251" y="-15.4" font-family="sans-serif" font-size="14.00" fill="#000000"> &#160;Module</text>
<polygon fill="#80b1d3" stroke="transparent" points="689,-10 689,-30 709,-30 709,-10 689,-10"/>
<text text-anchor="start" x="712.7812" y="-15.4" font-family="sans-serif" font-size="14.00" fill="#000000"> &#160;Bootstrap</text>
<polygon fill="#fdb462" stroke="transparent" points="786,-10 786,-30 806,-30 806,-10 786,-10"/>
<text text-anchor="start" x="809.6732" y="-15.4" font-family="sans-serif" font-size="14.00" fill="#000000"> &#160;Providers</text>
<polygon fill="#fb8072" stroke="transparent" points="882,-10 882,-30 902,-30 902,-10 882,-10"/>
<text text-anchor="start" x="905.7258" y="-15.4" font-family="sans-serif" font-size="14.00" fill="#000000"> &#160;Exports</text>
<g id="clust1" class="cluster">
<title>cluster_EntryPointModule</title>
<polygon fill="none" stroke="#000000" stroke-dasharray="1,5" points="8,-70 8,-195 1440,-195 1440,-70 8,-70"/>
</g>
<g id="clust2" class="cluster">
<title>cluster_EntryPointModule_declarations</title>
<polygon fill="none" stroke="#000000" points="918,-78 918,-130 1432,-130 1432,-78 918,-78"/>
</g>
<g id="clust6" class="cluster">
<title>cluster_EntryPointModule_imports</title>
<polygon fill="none" stroke="#000000" points="578,-78 578,-130 910,-130 910,-78 578,-78"/>
</g>
<g id="clust9" class="cluster">
<title>cluster_EntryPointModule_providers</title>
<polygon fill="none" stroke="#000000" points="16,-78 16,-130 570,-130 570,-78 16,-78"/>
</g>
<!-- LoginFormComponent -->
<g id="node1" class="node">
<title>LoginFormComponent</title>
<polygon fill="#ffffb3" stroke="#000000" points="1423.6094,-122 1278.3906,-122 1278.3906,-86 1423.6094,-86 1423.6094,-122"/>
<text text-anchor="middle" x="1351" y="-99.8" font-family="Times,serif" font-size="14.00" fill="#000000">LoginFormComponent</text>
</g>
<!-- EntryPointModule -->
<g id="node4" class="node">
<title>EntryPointModule</title>
<polygon fill="#8dd3c7" stroke="#000000" points="799.2176,-187 796.2176,-191 775.2176,-191 772.2176,-187 678.7824,-187 678.7824,-151 799.2176,-151 799.2176,-187"/>
<text text-anchor="middle" x="739" y="-164.8" font-family="Times,serif" font-size="14.00" fill="#000000">EntryPointModule</text>
</g>
<!-- LoginFormComponent&#45;&gt;EntryPointModule -->
<g id="edge1" class="edge">
<title>LoginFormComponent&#45;&gt;EntryPointModule</title>
<path fill="none" stroke="#000000" d="M1351,-122.2921C1351,-144.2057 1351,-178 1351,-178 1351,-178 809.3558,-178 809.3558,-178"/>
<polygon fill="#000000" stroke="#000000" points="809.3558,-174.5001 799.3558,-178 809.3558,-181.5001 809.3558,-174.5001"/>
</g>
<!-- PasswordRecoveryComponent -->
<g id="node2" class="node">
<title>PasswordRecoveryComponent</title>
<polygon fill="#ffffb3" stroke="#000000" points="1260.1274,-122 1071.8726,-122 1071.8726,-86 1260.1274,-86 1260.1274,-122"/>
<text text-anchor="middle" x="1166" y="-99.8" font-family="Times,serif" font-size="14.00" fill="#000000">PasswordRecoveryComponent</text>
</g>
<!-- PasswordRecoveryComponent&#45;&gt;EntryPointModule -->
<g id="edge2" class="edge">
<title>PasswordRecoveryComponent&#45;&gt;EntryPointModule</title>
<path fill="none" stroke="#000000" d="M1166,-122.1061C1166,-141.3391 1166,-169 1166,-169 1166,-169 809.273,-169 809.273,-169"/>
<polygon fill="#000000" stroke="#000000" points="809.2731,-165.5001 799.273,-169 809.273,-172.5001 809.2731,-165.5001"/>
</g>
<!-- RegisterComponent -->
<g id="node3" class="node">
<title>RegisterComponent</title>
<polygon fill="#ffffb3" stroke="#000000" points="1053.9846,-122 926.0154,-122 926.0154,-86 1053.9846,-86 1053.9846,-122"/>
<text text-anchor="middle" x="990" y="-99.8" font-family="Times,serif" font-size="14.00" fill="#000000">RegisterComponent</text>
</g>
<!-- RegisterComponent&#45;&gt;EntryPointModule -->
<g id="edge3" class="edge">
<title>RegisterComponent&#45;&gt;EntryPointModule</title>
<path fill="none" stroke="#000000" d="M990,-122.027C990,-138.3976 990,-160 990,-160 990,-160 809.1208,-160 809.1208,-160"/>
<polygon fill="#000000" stroke="#000000" points="809.1208,-156.5001 799.1208,-160 809.1207,-163.5001 809.1208,-156.5001"/>
</g>
<!-- EntryPointRouterModule -->
<g id="node5" class="node">
<title>EntryPointRouterModule</title>
<polygon fill="#8dd3c7" stroke="#000000" points="902.3201,-122 899.3201,-126 878.3201,-126 875.3201,-122 743.6799,-122 743.6799,-86 902.3201,-86 902.3201,-122"/>
<text text-anchor="middle" x="823" y="-99.8" font-family="Times,serif" font-size="14.00" fill="#000000">EntryPointRouterModule</text>
</g>
<!-- EntryPointRouterModule&#45;&gt;EntryPointModule -->
<g id="edge4" class="edge">
<title>EntryPointRouterModule&#45;&gt;EntryPointModule</title>
<path fill="none" stroke="#000000" d="M771.4744,-122.1061C771.4744,-122.1061 771.4744,-140.991 771.4744,-140.991"/>
<polygon fill="#000000" stroke="#000000" points="767.9745,-140.9909 771.4744,-150.991 774.9745,-140.991 767.9745,-140.9909"/>
</g>
<!-- ModalModuleModule -->
<g id="node6" class="node">
<title>ModalModuleModule</title>
<polygon fill="#8dd3c7" stroke="#000000" points="725.6498,-122 722.6498,-126 701.6498,-126 698.6498,-122 586.3502,-122 586.3502,-86 725.6498,-86 725.6498,-122"/>
<text text-anchor="middle" x="656" y="-99.8" font-family="Times,serif" font-size="14.00" fill="#000000">ModalModuleModule</text>
</g>
<!-- ModalModuleModule&#45;&gt;EntryPointModule -->
<g id="edge5" class="edge">
<title>ModalModuleModule&#45;&gt;EntryPointModule</title>
<path fill="none" stroke="#000000" d="M702.358,-122.1061C702.358,-122.1061 702.358,-140.991 702.358,-140.991"/>
<polygon fill="#000000" stroke="#000000" points="698.8581,-140.9909 702.358,-150.991 705.8581,-140.991 698.8581,-140.9909"/>
</g>
<!-- ModalService -->
<g id="node7" class="node">
<title>ModalService</title>
<ellipse fill="#fdb462" stroke="#000000" cx="497" cy="-104" rx="65.4072" ry="18"/>
<text text-anchor="middle" x="497" y="-99.8" font-family="Times,serif" font-size="14.00" fill="#000000">ModalService</text>
</g>
<!-- ModalService&#45;&gt;EntryPointModule -->
<g id="edge6" class="edge">
<title>ModalService&#45;&gt;EntryPointModule</title>
<path fill="none" stroke="#000000" d="M497,-122.027C497,-138.3976 497,-160 497,-160 497,-160 668.8688,-160 668.8688,-160"/>
<polygon fill="#000000" stroke="#000000" points="668.8689,-163.5001 678.8688,-160 668.8688,-156.5001 668.8689,-163.5001"/>
</g>
<!-- PasswordResetService -->
<g id="node8" class="node">
<title>PasswordResetService</title>
<ellipse fill="#fdb462" stroke="#000000" cx="315" cy="-104" rx="98.4082" ry="18"/>
<text text-anchor="middle" x="315" y="-99.8" font-family="Times,serif" font-size="14.00" fill="#000000">PasswordResetService</text>
</g>
<!-- PasswordResetService&#45;&gt;EntryPointModule -->
<g id="edge7" class="edge">
<title>PasswordResetService&#45;&gt;EntryPointModule</title>
<path fill="none" stroke="#000000" d="M315,-122.1061C315,-141.3391 315,-169 315,-169 315,-169 668.7014,-169 668.7014,-169"/>
<polygon fill="#000000" stroke="#000000" points="668.7015,-172.5001 678.7014,-169 668.7014,-165.5001 668.7015,-172.5001"/>
</g>
<!-- RegistrationService -->
<g id="node9" class="node">
<title>RegistrationService</title>
<ellipse fill="#fdb462" stroke="#000000" cx="111" cy="-104" rx="87.3924" ry="18"/>
<text text-anchor="middle" x="111" y="-99.8" font-family="Times,serif" font-size="14.00" fill="#000000">RegistrationService</text>
</g>
<!-- RegistrationService&#45;&gt;EntryPointModule -->
<g id="edge8" class="edge">
<title>RegistrationService&#45;&gt;EntryPointModule</title>
<path fill="none" stroke="#000000" d="M111,-122.2921C111,-144.2057 111,-178 111,-178 111,-178 668.7847,-178 668.7847,-178"/>
<polygon fill="#000000" stroke="#000000" points="668.7848,-181.5001 678.7847,-178 668.7847,-174.5001 668.7848,-181.5001"/>
</g>
</g>
</svg>
