<?xml version="1.0" encoding="UTF-8" standalone="no"?>
<!DOCTYPE svg PUBLIC "-//W3C//DTD SVG 1.1//EN"
 "http://www.w3.org/Graphics/SVG/1.1/DTD/svg11.dtd">
<!-- Generated by graphviz version 2.40.1 (20161225.0304)
 -->
<!-- Title: dependencies Pages: 1 -->
<svg width="504pt" height="284pt"
 viewBox="0.00 0.00 504.00 284.00" xmlns="http://www.w3.org/2000/svg" xmlns:xlink="http://www.w3.org/1999/xlink">
<g id="graph0" class="graph" transform="scale(1 1) rotate(0) translate(4 280)">
<title>dependencies</title>
<polygon fill="#ffffff" stroke="transparent" points="-4,4 -4,-280 500,-280 500,4 -4,4"/>
<text text-anchor="start" x="227.0091" y="-42.4" font-family="sans-serif" font-weight="bold" font-size="14.00" fill="#000000">Legend</text>
<polygon fill="#ffffb3" stroke="transparent" points="14,-10 14,-30 34,-30 34,-10 14,-10"/>
<text text-anchor="start" x="37.629" y="-15.4" font-family="sans-serif" font-size="14.00" fill="#000000"> &#160;Declarations</text>
<polygon fill="#8dd3c7" stroke="transparent" points="127,-10 127,-30 147,-30 147,-10 127,-10"/>
<text text-anchor="start" x="150.7251" y="-15.4" font-family="sans-serif" font-size="14.00" fill="#000000"> &#160;Module</text>
<polygon fill="#80b1d3" stroke="transparent" points="213,-10 213,-30 233,-30 233,-10 213,-10"/>
<text text-anchor="start" x="236.7812" y="-15.4" font-family="sans-serif" font-size="14.00" fill="#000000"> &#160;Bootstrap</text>
<polygon fill="#fdb462" stroke="transparent" points="310,-10 310,-30 330,-30 330,-10 310,-10"/>
<text text-anchor="start" x="333.6732" y="-15.4" font-family="sans-serif" font-size="14.00" fill="#000000"> &#160;Providers</text>
<polygon fill="#fb8072" stroke="transparent" points="406,-10 406,-30 426,-30 426,-10 406,-10"/>
<text text-anchor="start" x="429.7258" y="-15.4" font-family="sans-serif" font-size="14.00" fill="#000000"> &#160;Exports</text>
<g id="clust1" class="cluster">
<title>cluster_ModalModuleModule</title>
<polygon fill="none" stroke="#000000" stroke-dasharray="1,5" points="80.5,-70 80.5,-268 415.5,-268 415.5,-70 80.5,-70"/>
</g>
<g id="clust2" class="cluster">
<title>cluster_ModalModuleModule_declarations</title>
<polygon fill="none" stroke="#000000" points="91.5,-78 91.5,-130 403.5,-130 403.5,-78 91.5,-78"/>
</g>
<g id="clust6" class="cluster">
<title>cluster_ModalModuleModule_exports</title>
<polygon fill="none" stroke="#000000" points="88.5,-208 88.5,-260 407.5,-260 407.5,-208 88.5,-208"/>
</g>
<!-- BottomModalComponent -->
<g id="node1" class="node">
<title>BottomModalComponent</title>
<polygon fill="#ffffb3" stroke="#000000" points="395.3906,-122 235.6094,-122 235.6094,-86 395.3906,-86 395.3906,-122"/>
<text text-anchor="middle" x="315.5" y="-99.8" font-family="Times,serif" font-size="14.00" fill="#000000">BottomModalComponent</text>
</g>
<!-- ModalModuleModule -->
<g id="node3" class="node">
<title>ModalModuleModule</title>
<polygon fill="#8dd3c7" stroke="#000000" points="305.1498,-187 302.1498,-191 281.1498,-191 278.1498,-187 165.8502,-187 165.8502,-151 305.1498,-151 305.1498,-187"/>
<text text-anchor="middle" x="235.5" y="-164.8" font-family="Times,serif" font-size="14.00" fill="#000000">ModalModuleModule</text>
</g>
<!-- BottomModalComponent&#45;&gt;ModalModuleModule -->
<g id="edge1" class="edge">
<title>BottomModalComponent&#45;&gt;ModalModuleModule</title>
<path fill="none" stroke="#000000" d="M270.4397,-122.1061C270.4397,-122.1061 270.4397,-140.991 270.4397,-140.991"/>
<polygon fill="#000000" stroke="#000000" points="266.9398,-140.9909 270.4397,-150.991 273.9398,-140.991 266.9398,-140.9909"/>
</g>
<!-- ModalComponent -->
<g id="node2" class="node">
<title>ModalComponent</title>
<polygon fill="#ffffb3" stroke="#000000" points="217.3823,-122 99.6177,-122 99.6177,-86 217.3823,-86 217.3823,-122"/>
<text text-anchor="middle" x="158.5" y="-99.8" font-family="Times,serif" font-size="14.00" fill="#000000">ModalComponent</text>
</g>
<!-- ModalComponent&#45;&gt;ModalModuleModule -->
<g id="edge2" class="edge">
<title>ModalComponent&#45;&gt;ModalModuleModule</title>
<path fill="none" stroke="#000000" d="M191.5582,-122.1061C191.5582,-122.1061 191.5582,-140.991 191.5582,-140.991"/>
<polygon fill="#000000" stroke="#000000" points="188.0583,-140.9909 191.5582,-150.991 195.0583,-140.991 188.0583,-140.9909"/>
</g>
<!-- BottomModalComponent  -->
<g id="node4" class="node">
<title>BottomModalComponent </title>
<polygon fill="#fb8072" stroke="#000000" points="399.3911,-252 235.6089,-252 235.6089,-216 399.3911,-216 399.3911,-252"/>
<text text-anchor="middle" x="317.5" y="-229.8" font-family="Times,serif" font-size="14.00" fill="#000000">BottomModalComponent </text>
</g>
<!-- ModalModuleModule&#45;&gt;BottomModalComponent  -->
<g id="edge3" class="edge">
<title>ModalModuleModule&#45;&gt;BottomModalComponent </title>
<path fill="none" stroke="#000000" stroke-dasharray="5,2" d="M270.5647,-187.1061C270.5647,-187.1061 270.5647,-205.991 270.5647,-205.991"/>
<polygon fill="#000000" stroke="#000000" points="267.0648,-205.9909 270.5647,-215.991 274.0648,-205.991 267.0648,-205.9909"/>
</g>
<!-- ModalComponent  -->
<g id="node5" class="node">
<title>ModalComponent </title>
<polygon fill="#fb8072" stroke="#000000" points="218.3828,-252 96.6172,-252 96.6172,-216 218.3828,-216 218.3828,-252"/>
<text text-anchor="middle" x="157.5" y="-229.8" font-family="Times,serif" font-size="14.00" fill="#000000">ModalComponent </text>
</g>
<!-- ModalModuleModule&#45;&gt;ModalComponent  -->
<g id="edge4" class="edge">
<title>ModalModuleModule&#45;&gt;ModalComponent </title>
<path fill="none" stroke="#000000" stroke-dasharray="5,2" d="M191.9332,-187.1061C191.9332,-187.1061 191.9332,-205.991 191.9332,-205.991"/>
<polygon fill="#000000" stroke="#000000" points="188.4333,-205.9909 191.9332,-215.991 195.4333,-205.991 188.4333,-205.9909"/>
</g>
</g>
</svg>
