<?xml version="1.0" encoding="UTF-8" standalone="no"?>
<!DOCTYPE svg PUBLIC "-//W3C//DTD SVG 1.1//EN"
 "http://www.w3.org/Graphics/SVG/1.1/DTD/svg11.dtd">
<!-- Generated by graphviz version 2.40.1 (20161225.0304)
 -->
<!-- Title: dependencies Pages: 1 -->
<svg width="504pt" height="284pt"
 viewBox="0.00 0.00 504.00 284.00" xmlns="http://www.w3.org/2000/svg" xmlns:xlink="http://www.w3.org/1999/xlink">
<g id="graph0" class="graph" transform="scale(1 1) rotate(0) translate(4 280)">
<title>dependencies</title>
<polygon fill="#ffffff" stroke="transparent" points="-4,4 -4,-280 500,-280 500,4 -4,4"/>
<text text-anchor="start" x="227.0091" y="-42.4" font-family="sans-serif" font-weight="bold" font-size="14.00" fill="#000000">Legend</text>
<polygon fill="#ffffb3" stroke="transparent" points="14,-10 14,-30 34,-30 34,-10 14,-10"/>
<text text-anchor="start" x="37.629" y="-15.4" font-family="sans-serif" font-size="14.00" fill="#000000"> &#160;Declarations</text>
<polygon fill="#8dd3c7" stroke="transparent" points="127,-10 127,-30 147,-30 147,-10 127,-10"/>
<text text-anchor="start" x="150.7251" y="-15.4" font-family="sans-serif" font-size="14.00" fill="#000000"> &#160;Module</text>
<polygon fill="#80b1d3" stroke="transparent" points="213,-10 213,-30 233,-30 233,-10 213,-10"/>
<text text-anchor="start" x="236.7812" y="-15.4" font-family="sans-serif" font-size="14.00" fill="#000000"> &#160;Bootstrap</text>
<polygon fill="#fdb462" stroke="transparent" points="310,-10 310,-30 330,-30 330,-10 310,-10"/>
<text text-anchor="start" x="333.6732" y="-15.4" font-family="sans-serif" font-size="14.00" fill="#000000"> &#160;Providers</text>
<polygon fill="#fb8072" stroke="transparent" points="406,-10 406,-30 426,-30 426,-10 406,-10"/>
<text text-anchor="start" x="429.7258" y="-15.4" font-family="sans-serif" font-size="14.00" fill="#000000"> &#160;Exports</text>
<g id="clust1" class="cluster">
<title>cluster_SharedModulesModule</title>
<polygon fill="none" stroke="#000000" stroke-dasharray="1,5" points="40,-70 40,-268 456,-268 456,-70 40,-70"/>
</g>
<g id="clust2" class="cluster">
<title>cluster_SharedModulesModule_declarations</title>
<polygon fill="none" stroke="#000000" points="52,-78 52,-130 445,-130 445,-78 52,-78"/>
</g>
<g id="clust6" class="cluster">
<title>cluster_SharedModulesModule_exports</title>
<polygon fill="none" stroke="#000000" points="48,-208 48,-260 448,-260 448,-208 48,-208"/>
</g>
<!-- CategorySelectorComponent -->
<g id="node1" class="node">
<title>CategorySelectorComponent</title>
<polygon fill="#ffffb3" stroke="#000000" points="437.0183,-122 258.9817,-122 258.9817,-86 437.0183,-86 437.0183,-122"/>
<text text-anchor="middle" x="348" y="-99.8" font-family="Times,serif" font-size="14.00" fill="#000000">CategorySelectorComponent</text>
</g>
<!-- SharedModulesModule -->
<g id="node3" class="node">
<title>SharedModulesModule</title>
<polygon fill="#8dd3c7" stroke="#000000" points="224.9172,-187 221.9172,-191 200.9172,-191 197.9172,-187 77.0828,-187 77.0828,-151 224.9172,-151 224.9172,-187"/>
<text text-anchor="middle" x="151" y="-164.8" font-family="Times,serif" font-size="14.00" fill="#000000">SharedModulesModule</text>
</g>
<!-- CategorySelectorComponent&#45;&gt;SharedModulesModule -->
<g id="edge1" class="edge">
<title>CategorySelectorComponent&#45;&gt;SharedModulesModule</title>
<path fill="none" stroke="#000000" d="M377.7529,-122.0225C377.7529,-139.3734 377.7529,-163 377.7529,-163 377.7529,-163 234.9336,-163 234.9336,-163"/>
<polygon fill="#000000" stroke="#000000" points="234.9337,-159.5001 224.9336,-163 234.9336,-166.5001 234.9337,-159.5001"/>
</g>
<!-- TraceColorPickerComponent -->
<g id="node2" class="node">
<title>TraceColorPickerComponent</title>
<polygon fill="#ffffb3" stroke="#000000" points="240.3403,-122 59.6597,-122 59.6597,-86 240.3403,-86 240.3403,-122"/>
<text text-anchor="middle" x="150" y="-99.8" font-family="Times,serif" font-size="14.00" fill="#000000">TraceColorPickerComponent</text>
</g>
<!-- TraceColorPickerComponent&#45;&gt;SharedModulesModule -->
<g id="edge2" class="edge">
<title>TraceColorPickerComponent&#45;&gt;SharedModulesModule</title>
<path fill="none" stroke="#000000" d="M151,-122.1061C151,-122.1061 151,-140.991 151,-140.991"/>
<polygon fill="#000000" stroke="#000000" points="147.5001,-140.9909 151,-150.991 154.5001,-140.991 147.5001,-140.9909"/>
</g>
<!-- CategorySelectorComponent  -->
<g id="node4" class="node">
<title>CategorySelectorComponent </title>
<polygon fill="#fb8072" stroke="#000000" points="440.0176,-252 257.9824,-252 257.9824,-216 440.0176,-216 440.0176,-252"/>
<text text-anchor="middle" x="349" y="-229.8" font-family="Times,serif" font-size="14.00" fill="#000000">CategorySelectorComponent </text>
</g>
<!-- SharedModulesModule&#45;&gt;CategorySelectorComponent  -->
<g id="edge3" class="edge">
<title>SharedModulesModule&#45;&gt;CategorySelectorComponent </title>
<path fill="none" stroke="#000000" stroke-dasharray="5,2" d="M224.8438,-175C269.647,-175 318.2471,-175 318.2471,-175 318.2471,-175 318.2471,-205.9775 318.2471,-205.9775"/>
<polygon fill="#000000" stroke="#000000" points="314.7472,-205.9774 318.2471,-215.9775 321.7472,-205.9775 314.7472,-205.9774"/>
</g>
<!-- TraceColorPickerComponent  -->
<g id="node5" class="node">
<title>TraceColorPickerComponent </title>
<polygon fill="#fb8072" stroke="#000000" points="240.3405,-252 55.6595,-252 55.6595,-216 240.3405,-216 240.3405,-252"/>
<text text-anchor="middle" x="148" y="-229.8" font-family="Times,serif" font-size="14.00" fill="#000000">TraceColorPickerComponent </text>
</g>
<!-- SharedModulesModule&#45;&gt;TraceColorPickerComponent  -->
<g id="edge4" class="edge">
<title>SharedModulesModule&#45;&gt;TraceColorPickerComponent </title>
<path fill="none" stroke="#000000" stroke-dasharray="5,2" d="M151,-187.1061C151,-187.1061 151,-205.991 151,-205.991"/>
<polygon fill="#000000" stroke="#000000" points="147.5001,-205.9909 151,-215.991 154.5001,-205.991 147.5001,-205.9909"/>
</g>
</g>
</svg>
